<?xml version="1.0" encoding="utf-8"?>
<!-- Generator: Adobe Illustrator 16.0.4, SVG Export Plug-In . SVG Version: 6.00 Build 0)  -->
<!DOCTYPE svg PUBLIC "-//W3C//DTD SVG 1.1//EN" "http://www.w3.org/Graphics/SVG/1.1/DTD/svg11.dtd" [
	<!ENTITY ns_extend "http://ns.adobe.com/Extensibility/1.0/">
	<!ENTITY ns_ai "http://ns.adobe.com/AdobeIllustrator/10.0/">
	<!ENTITY ns_graphs "http://ns.adobe.com/Graphs/1.0/">
	<!ENTITY ns_vars "http://ns.adobe.com/Variables/1.0/">
	<!ENTITY ns_imrep "http://ns.adobe.com/ImageReplacement/1.0/">
	<!ENTITY ns_sfw "http://ns.adobe.com/SaveForWeb/1.0/">
	<!ENTITY ns_custom "http://ns.adobe.com/GenericCustomNamespace/1.0/">
	<!ENTITY ns_adobe_xpath "http://ns.adobe.com/XPath/1.0/">
]>
<svg version="1.1" id="Air" xmlns:x="&ns_extend;" xmlns:i="&ns_ai;" xmlns:graph="&ns_graphs;"
	 xmlns="http://www.w3.org/2000/svg" xmlns:xlink="http://www.w3.org/1999/xlink" x="0px" y="0px" width="64px" height="64px"
	 viewBox="0 0 64 64" enable-background="new 0 0 64 64" xml:space="preserve">
<metadata>
	<sfw  xmlns="&ns_sfw;">
		<slices></slices>
		<sliceSourceBounds  width="64.08" height="64.08" x="615.46" y="148.46" bottomLeftOrigin="true"></sliceSourceBounds>
		<optimizationSettings>
			<targetSettings  fileFormat="PNG24Format" targetSettingsID="0">
				<PNG24Format  transparency="true" filtered="false" interlaced="false" matteColor="#FFFFFF" noMatteColor="false">
					</PNG24Format>
			</targetSettings>
		</optimizationSettings>
	</sfw>
</metadata>
<g>
	<circle fill="#00ADEE" cx="32" cy="32" r="32.04"/>
	<circle cx="32" cy="32.019" r="27.085"/>
	<g id="PHAtTB_1_">
		<g>
			<path fill="#FFFFFF" d="M38.915,40.205c0,0.86,0.011,1.69-0.005,2.521c-0.008,0.382,0.104,0.705,0.352,0.982
				c0.243,0.272,0.499,0.533,0.748,0.8c0.137,0.146,0.273,0.293,0.403,0.445c0.235,0.277,0.348,0.589,0.345,0.964
				c-0.013,1.582-0.005,3.165-0.006,4.747c-0.001,1.042-0.448,1.478-1.487,1.453c-0.784-0.018-1.239-0.459-1.259-1.246
				c-0.014-0.601-0.004-1.202-0.005-1.804c0-0.476-0.135-0.61-0.612-0.61c-0.092,0-0.184,0-0.301,0c0,0.102,0,0.185,0,0.269
				c0,1.382-0.018,2.764,0.008,4.146c0.013,0.633-0.501,1.103-1.101,1.098c-2.649-0.024-5.299-0.011-7.949-0.011
				c-0.639,0-1.047-0.405-1.047-1.043c0-4.812,0-9.624,0-14.437c0-0.659,0.364-1.023,1.022-1.023c2.678-0.001,5.356-0.001,8.035,0
				c0.668,0,1.064,0.368,1.021,1.038c-0.035,0.555,0.102,0.97,0.533,1.347c0.29,0.254,0.548,0.429,0.936,0.368
				C38.657,40.19,38.772,40.205,38.915,40.205z M28.848,42.94c2.137,0,4.264,0,6.39,0c0-1.221,0-2.427,0-3.636
				c-2.135,0-4.257,0-6.39,0C28.848,40.522,28.848,41.728,28.848,42.94z M37.1,47.544c0.253,0,0.496,0.02,0.736-0.004
				c0.628-0.062,1.119,0.48,1.087,1.073c-0.036,0.664-0.009,1.332-0.008,1.998c0,0.071,0.002,0.144,0.01,0.214
				c0.025,0.204,0.153,0.318,0.343,0.366c0.192,0.047,0.374-0.006,0.475-0.168c0.069-0.112,0.092-0.27,0.093-0.407
				c0.006-1.432,0.001-2.864,0.006-4.297c0.002-0.292-0.071-0.553-0.251-0.779c-0.137-0.174-0.282-0.343-0.432-0.506
				c-0.275-0.301-0.564-0.59-0.834-0.896c-0.231-0.261-0.345-0.565-0.327-0.925c0.019-0.384,0.004-0.77,0.004-1.157
				c-0.314,0-0.604,0-0.901,0C37.1,43.887,37.1,45.702,37.1,47.544z"/>
		</g>
	</g>
	<g>
		<path fill="#FFFFFF" d="M43.043,18.463l-4.399-3.343v1.641c-1.04,0.042-2.611,0.107-4.199-0.047
			c-1.856-0.18-3.22-0.611-4.053-1.282c-1.186-0.955-2.443-1.693-3.738-2.196c-1.036-0.402-2.099-0.655-3.157-0.751
			c-1.814-0.165-2.993,0.186-3.042,0.201l0.227,1.63c0.011-0.003,1.111-0.326,2.788-0.166c1.539,0.146,3.896,0.741,6.383,2.744
			c0.539,0.434,1.242,0.782,2.09,1.035c0.697,0.208,1.514,0.358,2.429,0.447c0.79,0.077,1.571,0.102,2.288,0.102
			c0.771,0,1.466-0.028,2.016-0.051L43.043,18.463z"/>
		<path fill="#FFFFFF" d="M43.043,22.689l-4.399-3.343v1.641c-1.04,0.042-2.611,0.106-4.199-0.047
			c-1.856-0.18-3.22-0.612-4.053-1.283c-1.186-0.954-2.443-1.693-3.738-2.196c-1.036-0.402-2.099-0.655-3.157-0.751
			c-1.814-0.165-2.993,0.186-3.042,0.201l0.227,1.63c0.011-0.003,1.111-0.326,2.788-0.166c1.539,0.146,3.896,0.741,6.383,2.743
			c0.539,0.434,1.242,0.782,2.09,1.035c0.697,0.208,1.514,0.358,2.429,0.447c0.79,0.077,1.571,0.101,2.288,0.101
			c0.771,0,1.466-0.028,2.016-0.051L43.043,22.689z"/>
		<path fill="#FFFFFF" d="M43.055,26.866l-4.4-3.343v1.641c-1.039,0.042-2.61,0.107-4.198-0.047c-1.856-0.18-3.22-0.611-4.053-1.282
			c-1.186-0.955-2.443-1.693-3.738-2.196c-1.036-0.402-2.098-0.655-3.157-0.751c-1.814-0.165-2.993,0.186-3.042,0.201l0.227,1.63
			c0.011-0.003,1.111-0.326,2.788-0.166c1.539,0.146,3.896,0.741,6.383,2.744c0.539,0.434,1.242,0.782,2.09,1.035
			c0.697,0.208,1.514,0.358,2.428,0.447c0.791,0.077,1.572,0.101,2.289,0.101c0.771,0,1.466-0.028,2.015-0.051L43.055,26.866z"/>
	</g>
	
		<line fill="none" stroke="#FFFFFF" stroke-width="2.3573" stroke-linecap="round" x1="11.175" y1="31.983" x2="52.825" y2="31.983"/>
</g>
</svg>
