<?xml version="1.0" encoding="utf-8"?>
<!-- Generator: Adobe Illustrator 16.0.4, SVG Export Plug-In . SVG Version: 6.00 Build 0)  -->
<!DOCTYPE svg PUBLIC "-//W3C//DTD SVG 1.1//EN" "http://www.w3.org/Graphics/SVG/1.1/DTD/svg11.dtd" [
	<!ENTITY ns_extend "http://ns.adobe.com/Extensibility/1.0/">
	<!ENTITY ns_ai "http://ns.adobe.com/AdobeIllustrator/10.0/">
	<!ENTITY ns_graphs "http://ns.adobe.com/Graphs/1.0/">
	<!ENTITY ns_vars "http://ns.adobe.com/Variables/1.0/">
	<!ENTITY ns_imrep "http://ns.adobe.com/ImageReplacement/1.0/">
	<!ENTITY ns_sfw "http://ns.adobe.com/SaveForWeb/1.0/">
	<!ENTITY ns_custom "http://ns.adobe.com/GenericCustomNamespace/1.0/">
	<!ENTITY ns_adobe_xpath "http://ns.adobe.com/XPath/1.0/">
]>
<svg version="1.1" id="Layer_1" xmlns:x="&ns_extend;" xmlns:i="&ns_ai;" xmlns:graph="&ns_graphs;"
	 xmlns="http://www.w3.org/2000/svg" xmlns:xlink="http://www.w3.org/1999/xlink" x="0px" y="0px" width="64px" height="64px"
	 viewBox="268 268 64 64" enable-background="new 268 268 64 64" xml:space="preserve">
<metadata>
	<sfw  xmlns="&ns_sfw;">
		<slices></slices>
		<sliceSourceBounds  y="268.5" x="267.5" bottomLeftOrigin="true" width="64" height="64"></sliceSourceBounds>
	</sfw>
</metadata>
<g id="Layer_2">
</g>
<g id="Layer_1_1_">
	<g>
		<path fill="#FFFFFF" d="M330.669,298.645h-3.104c-0.345-6.862-3.181-13.265-8.074-18.159c-4.899-4.9-11.312-7.737-18.185-8.076
			v-3.08c0-0.735-0.596-1.331-1.331-1.331c-0.735,0-1.331,0.596-1.331,1.331v3.075c-6.92,0.31-13.382,3.151-18.312,8.081
			c-4.905,4.905-7.744,11.326-8.077,18.207h-2.925c-0.735,0-1.331,0.596-1.331,1.331c0,0.735,0.596,1.332,1.331,1.332h2.922
			c0.314,6.911,3.155,13.364,8.079,18.289c4.941,4.941,11.422,7.784,18.36,8.082v2.942c0,0.735,0.596,1.331,1.331,1.331
			c0.735,0,1.332-0.596,1.332-1.331v-2.952c6.854-0.349,13.247-3.184,18.136-8.072c4.936-4.936,7.777-11.408,8.081-18.338h3.097
			c0.735,0,1.331-0.596,1.331-1.331C332,299.241,331.404,298.645,330.669,298.645z M317.734,317.888
			c-4.419,4.419-10.189,6.993-16.379,7.34v-3.06c0-0.734-0.597-1.331-1.332-1.331c-0.735,0-1.331,0.597-1.331,1.331v3.073
			c-6.274-0.298-12.131-2.882-16.603-7.354c-4.456-4.455-7.037-10.285-7.35-16.532h3.091c0.735,0,1.331-0.597,1.331-1.332
			c0-0.735-0.596-1.331-1.331-1.331h-3.086c0.331-6.216,2.909-12.014,7.344-16.45c4.46-4.46,10.298-7.043,16.555-7.351v2.939
			c0,0.735,0.596,1.331,1.331,1.331c0.735,0,1.331-0.596,1.331-1.331V274.9c6.208,0.336,11.997,2.913,16.428,7.343
			c4.424,4.424,6.999,10.204,7.342,16.402h-2.908c-0.734,0-1.331,0.596-1.331,1.331c0,0.735,0.597,1.331,1.331,1.331h2.918
			C324.784,307.573,322.201,313.421,317.734,317.888z"/>
		<g>
			<path fill="#FFFFFF" d="M284.191,307.49c0.165-0.203,0.33-0.406,0.494-0.609c-0.936-2.082-1.457-4.389-1.457-6.815
				c0-3.23,0.924-6.249,2.52-8.807c-0.132,0.027-0.269,0.042-0.408,0.042h-1.278c-0.375,0-0.739-0.104-1.053-0.294
				c-1.48,2.753-2.266,5.845-2.266,9.059c0,3.171,0.766,6.224,2.208,8.949C283.365,308.509,283.781,307.996,284.191,307.49z"/>
			<path fill="#FFFFFF" d="M298.812,283.191c0.068,0.071,0.134,0.143,0.199,0.214c0.298-0.016,0.599-0.024,0.901-0.024
				c9.2,0,16.684,7.484,16.684,16.684c0,2.821-0.705,5.481-1.946,7.813c0.432-0.081,0.749-0.181,0.872-0.248
				c0.345-0.199,0.49-0.42,0.782-1.503c0.242-0.889,1.048-1.506,1.969-1.506h0.266c0.357-1.474,0.543-3.001,0.543-4.557
				c0-5.12-1.994-9.934-5.615-13.554c-3.62-3.621-8.434-5.615-13.554-5.615c-1.288,0-2.556,0.126-3.791,0.373
				C297.147,281.752,298.04,282.39,298.812,283.191z"/>
			<path fill="#FFFFFF" d="M308.403,314.421c-2.489,1.479-5.393,2.329-8.491,2.329c-3.223,0-6.235-0.92-8.789-2.509
				c-0.384,0.415-0.926,0.654-1.497,0.654h-1.863c3.418,2.811,7.666,4.339,12.148,4.339c4.329,0,8.44-1.426,11.796-4.056
				C310.488,315.052,309.39,314.801,308.403,314.421z"/>
		</g>
		<g>
			<path fill="#FFFFFF" d="M307.4,301.638c0.125,0.322,0.248,0.653,0.367,0.974c0.113,0.306,0.224,0.598,0.333,0.878
				c0.441-1.054,0.686-2.21,0.686-3.424c0-3.621-2.17-6.735-5.28-8.115C304.886,295.172,306.201,298.553,307.4,301.638z"/>
			<path fill="#FFFFFF" d="M301.943,306.563c-0.06-0.16-0.119-0.319-0.178-0.478c-0.406-1.086-0.828-2.186-1.235-3.248
				c-0.057-0.147-0.113-0.294-0.168-0.439c-1.504,1.859-2.966,3.752-4.397,5.615c1.189,0.592,2.529,0.926,3.948,0.926
				c0.973,0,1.909-0.157,2.784-0.446C302.416,307.838,302.173,307.186,301.943,306.563z"/>
			<path fill="#FFFFFF" d="M291.093,299.083c1.326-1.608,2.667-3.241,3.973-4.854c0.188-0.233,0.425-0.487,0.699-0.781
				c0.181-0.195,0.457-0.491,0.676-0.746c-0.001-0.001-0.001-0.003-0.002-0.004c-0.094-0.188-0.201-0.402-0.295-0.623
				c-0.005-0.012-0.01-0.024-0.016-0.037C293.402,293.325,291.437,295.959,291.093,299.083z"/>
		</g>
		<path fill="#FFFFFF" d="M290.996,282.292c0.424,0,0.851,0,1.277,0c5.151,0.668,6.299,3.767,7.754,6.867
			c1.919,4.089,3.777,8.857,5.473,13.218c1.101,2.829,1.987,6.357,5.839,7.434c1.854,0.519,4.313,0.099,5.199-0.412
			c1.102-0.634,1.419-1.572,1.734-2.736c0.454,0,0.911,0,1.366,0c0,0.31,0,0.618,0,0.93c-0.366,2.803-1.743,5.036-6.11,5.575
			c-0.487,0-0.976,0-1.46,0c-5.979-0.557-7.096-4.328-8.394-7.796c-0.901-2.408-1.858-4.837-2.645-6.97
			c-4.015,4.698-7.578,9.65-11.403,14.455c-2.402,0-4.804,0-7.207,0c0-0.018,0-0.033,0-0.051c1.33-1.51,2.736-3.273,4.105-4.956
			c3.389-4.168,6.803-8.234,10.127-12.34c0.496-0.614,1.915-1.936,2.005-2.531c0.068-0.427-0.391-1.123-0.637-1.703
			c-0.944-2.219-2.246-5.089-5.565-5.732c-4.051-0.785-6.82,1.422-7.115,3.717c-0.426,0-0.852,0-1.277,0
			C284.442,285.847,285.858,283.017,290.996,282.292z"/>
	</g>
</g>
</svg>
