<?xml version="1.0" encoding="utf-8"?>
<!-- Generator: Adobe Illustrator 16.0.4, SVG Export Plug-In . SVG Version: 6.00 Build 0)  -->
<!DOCTYPE svg PUBLIC "-//W3C//DTD SVG 1.1//EN" "http://www.w3.org/Graphics/SVG/1.1/DTD/svg11.dtd" [
	<!ENTITY ns_extend "http://ns.adobe.com/Extensibility/1.0/">
	<!ENTITY ns_ai "http://ns.adobe.com/AdobeIllustrator/10.0/">
	<!ENTITY ns_graphs "http://ns.adobe.com/Graphs/1.0/">
	<!ENTITY ns_vars "http://ns.adobe.com/Variables/1.0/">
	<!ENTITY ns_imrep "http://ns.adobe.com/ImageReplacement/1.0/">
	<!ENTITY ns_sfw "http://ns.adobe.com/SaveForWeb/1.0/">
	<!ENTITY ns_custom "http://ns.adobe.com/GenericCustomNamespace/1.0/">
	<!ENTITY ns_adobe_xpath "http://ns.adobe.com/XPath/1.0/">
]>
<svg version="1.1" xmlns:x="&ns_extend;" xmlns:i="&ns_ai;" xmlns:graph="&ns_graphs;"
	 xmlns="http://www.w3.org/2000/svg" xmlns:xlink="http://www.w3.org/1999/xlink" x="0px" y="0px" width="64px" height="64px"
	 viewBox="0 0 64 64" enable-background="new 0 0 64 64" xml:space="preserve">
<metadata>
	<sfw  xmlns="&ns_sfw;">
		<slices></slices>
		<sliceSourceBounds  y="0.5" x="-0.5" width="64" height="64" bottomLeftOrigin="true"></sliceSourceBounds>
		<optimizationSettings>
			<targetSettings  fileFormat="PNG24Format" targetSettingsID="0">
				<PNG24Format  filtered="false" matteColor="#FFFFFF" noMatteColor="false" interlaced="false" transparency="true">
					</PNG24Format>
			</targetSettings>
		</optimizationSettings>
	</sfw>
</metadata>
<g id="Layer_4">
</g>
<g id="Layer_1">
	<g id="Layer_2">
	</g>
</g>
<g id="Layer_3">
</g>
<g id="Layer_2_1_">
	<g>
		<path fill="none" d="M52.837,31.978c0-0.735,0.597-1.332,1.331-1.332h2.908c-0.343-6.197-2.918-11.978-7.342-16.401
			c-4.432-4.431-10.221-7.007-16.429-7.343v2.93c0,0.734-0.596,1.331-1.33,1.331c-0.735,0-1.332-0.597-1.332-1.331V6.892
			C24.388,7.2,18.549,9.783,14.089,14.243c-4.436,4.436-7.013,10.234-7.344,16.449h3.086c0.734,0,1.331,0.597,1.331,1.332
			c0,0.733-0.597,1.331-1.331,1.331H6.74c0.313,6.246,2.894,12.076,7.35,16.531c4.472,4.473,10.329,7.057,16.603,7.355v-3.074
			c0-0.734,0.597-1.33,1.332-1.33c0.734,0,1.332,0.596,1.332,1.33v3.061c6.189-0.348,11.96-2.922,16.379-7.34
			c4.467-4.467,7.05-10.314,7.351-16.582h-2.918C53.434,33.307,52.837,32.711,52.837,31.978z M32,15.542
			c6.14,0,11.484,3.369,14.312,8.353h-2.137c-2.622-3.932-7.095-6.523-12.176-6.523c-5.082,0-9.556,2.594-12.178,6.527
			c-0.595-0.207-1.235-0.328-1.936-0.332C20.761,18.766,25.998,15.542,32,15.542z M35.52,26.688l0.79-1.293h2.596v13.21h-1.312
			V26.688H35.52z M33.279,32.005c0,1.659-0.199,2.979-0.598,3.961s-0.947,1.723-1.648,2.223s-1.479,0.75-2.335,0.75
			c-0.844,0-1.604-0.242-2.281-0.728c-0.677-0.485-1.206-1.208-1.585-2.17c-0.38-0.96-0.57-2.306-0.57-4.036
			c0-1.742,0.188-3.089,0.562-4.041s0.902-1.674,1.585-2.165c0.683-0.49,1.446-0.735,2.29-0.735c0.856,0,1.632,0.246,2.326,0.74
			s1.244,1.235,1.649,2.223C33.077,29.015,33.279,30.341,33.279,32.005z M13.133,38.605l5.047-5.454
			c1.024-1.097,1.69-1.91,1.999-2.44c0.308-0.53,0.462-1.089,0.462-1.677c0-0.742-0.277-1.382-0.831-1.919
			c-0.554-0.536-1.232-0.804-2.034-0.804c-0.844,0-1.547,0.281-2.106,0.844c-0.56,0.562-0.879,1.353-0.957,2.371h-1.266
			c0.036-1.303,0.471-2.372,1.307-3.209c0.835-0.836,1.866-1.254,3.094-1.254c1.215,0,2.199,0.392,2.95,1.177
			c0.751,0.784,1.127,1.71,1.127,2.776c0,0.748-0.179,1.451-0.537,2.106c-0.359,0.655-1.054,1.543-2.087,2.664L16.01,37.33h6.095
			v1.275H13.133z M15.542,32c0-0.329,0.03-0.65,0.049-0.975h0.512l0.105-1.386c0.05-0.656,0.222-1.123,0.524-1.428
			c0.276-0.277,0.598-0.401,1.042-0.401c0.076,0,0.133,0.026,0.203,0.034c-0.372,1.258-0.579,2.585-0.598,3.959
			c-0.097,0.106-0.193,0.211-0.302,0.328l-1.449,1.566C15.572,33.14,15.542,32.573,15.542,32z M32,48.458
			c-6.141,0-11.485-3.368-14.314-8.353h2.138C22.446,44.037,26.919,46.63,32,46.63c4.851,0,9.138-2.371,11.799-6.006l0.641,0.328
			l3.948-7.565C47.683,41.826,40.621,48.458,32,48.458z M43.8,38.938l-1.094-0.561l6.099-11.725h-6.316v-1.258h8.38L43.8,38.938z"/>
		<path fill="none" d="M30.383,26.899c-0.518-0.392-1.064-0.588-1.639-0.588c-0.587,0-1.138,0.196-1.652,0.588
			c-0.516,0.393-0.907,0.972-1.177,1.735s-0.404,1.895-0.404,3.393c0,1.492,0.133,2.62,0.399,3.384
			c0.267,0.764,0.66,1.344,1.182,1.739c0.521,0.396,1.071,0.593,1.652,0.593c0.587,0,1.135-0.192,1.644-0.579
			s0.895-0.966,1.159-1.739c0.329-0.94,0.493-2.073,0.493-3.397c0-1.33-0.146-2.419-0.44-3.267
			C31.306,27.912,30.901,27.292,30.383,26.899z"/>
		<path fill="#FFFFFF" d="M62.67,30.646h-3.104c-0.346-6.861-3.182-13.265-8.074-18.158c-4.899-4.9-11.312-7.737-18.185-8.076v-3.08
			C33.308,0.597,32.711,0,31.976,0c-0.734,0-1.33,0.597-1.33,1.331v3.075c-6.92,0.31-13.383,3.151-18.312,8.081
			c-4.905,4.904-7.744,11.326-8.077,18.207H1.331C0.597,30.694,0,31.29,0,32.024c0,0.735,0.597,1.331,1.331,1.331h2.922
			c0.314,6.912,3.155,13.365,8.079,18.289c4.94,4.941,11.422,7.785,18.36,8.082v2.943c0,0.734,0.596,1.33,1.33,1.33
			c0.735,0,1.332-0.596,1.332-1.33v-2.953c6.854-0.348,13.247-3.184,18.137-8.072c4.936-4.936,7.776-11.408,8.081-18.338h3.097
			c0.735,0,1.331-0.596,1.331-1.329C64.001,31.242,63.405,30.646,62.67,30.646z M49.735,49.889
			c-4.419,4.418-10.189,6.992-16.379,7.34v-3.061c0-0.734-0.598-1.33-1.332-1.33c-0.735,0-1.332,0.596-1.332,1.33v3.074
			c-6.273-0.299-12.131-2.883-16.603-7.355c-4.456-4.455-7.036-10.285-7.35-16.531h3.091c0.734,0,1.331-0.598,1.331-1.331
			c0-0.735-0.597-1.332-1.331-1.332H6.745c0.331-6.215,2.908-12.014,7.344-16.449c4.46-4.46,10.299-7.043,16.555-7.352v2.939
			c0,0.734,0.597,1.331,1.332,1.331c0.734,0,1.33-0.597,1.33-1.331v-2.93c6.208,0.336,11.997,2.912,16.429,7.343
			c4.424,4.424,6.999,10.204,7.342,16.401h-2.908c-0.734,0-1.331,0.597-1.331,1.332c0,0.733,0.597,1.329,1.331,1.329h2.918
			C56.785,39.574,54.202,45.422,49.735,49.889z"/>
		<path fill="#FFFFFF" d="M22.104,37.33H16.01l3.291-3.543c1.033-1.121,1.728-2.009,2.087-2.664
			c0.358-0.655,0.537-1.358,0.537-2.106c0-1.066-0.375-1.992-1.127-2.776c-0.751-0.785-1.735-1.177-2.95-1.177
			c-1.228,0-2.259,0.418-3.094,1.254c-0.835,0.837-1.271,1.906-1.307,3.209h1.266c0.078-1.019,0.396-1.809,0.957-2.371
			c0.559-0.562,1.262-0.844,2.106-0.844c0.802,0,1.48,0.268,2.034,0.804c0.554,0.537,0.831,1.177,0.831,1.919
			c0,0.588-0.154,1.146-0.462,1.677c-0.309,0.53-0.975,1.344-1.999,2.44l-5.047,5.454h8.972V37.33z"/>
		<path fill="#FFFFFF" d="M31.025,25.804c-0.694-0.494-1.47-0.74-2.326-0.74c-0.844,0-1.607,0.245-2.29,0.735
			c-0.683,0.491-1.211,1.213-1.585,2.165s-0.562,2.299-0.562,4.041c0,1.73,0.19,3.076,0.57,4.036c0.38,0.962,0.909,1.685,1.585,2.17
			c0.676,0.485,1.437,0.728,2.281,0.728c0.856,0,1.634-0.25,2.335-0.75s1.25-1.24,1.648-2.223s0.598-2.302,0.598-3.961
			c0-1.664-0.202-2.99-0.605-3.979C32.269,27.039,31.719,26.298,31.025,25.804z M32.04,32.027c0,1.324-0.164,2.457-0.493,3.397
			c-0.264,0.773-0.65,1.353-1.159,1.739s-1.057,0.579-1.644,0.579c-0.581,0-1.131-0.197-1.652-0.593
			c-0.521-0.396-0.915-0.976-1.182-1.739c-0.266-0.764-0.399-1.892-0.399-3.384c0-1.498,0.135-2.629,0.404-3.393
			s0.661-1.343,1.177-1.735c0.514-0.392,1.065-0.588,1.652-0.588c0.575,0,1.122,0.196,1.639,0.588
			c0.518,0.393,0.923,1.013,1.217,1.861C31.893,29.608,32.04,30.697,32.04,32.027z"/>
		<polygon fill="#FFFFFF" points="38.905,38.605 38.905,25.396 36.31,25.396 35.52,26.688 37.594,26.688 37.594,38.605 		"/>
		<polygon fill="#FFFFFF" points="42.488,26.653 48.805,26.653 42.706,38.378 43.8,38.938 50.868,25.396 42.488,25.396 		"/>
		<path fill="#FFFFFF" d="M32,17.371c5.081,0,9.554,2.592,12.176,6.523h2.137C43.484,18.911,38.14,15.542,32,15.542
			c-6.002,0-11.239,3.224-14.114,8.024c0.701,0.004,1.341,0.125,1.936,0.332C22.444,19.965,26.918,17.371,32,17.371z"/>
		<path fill="#FFFFFF" d="M17.38,31.804c0.019-1.374,0.226-2.701,0.598-3.959c-0.069-0.008-0.126-0.034-0.203-0.034
			c-0.445,0-0.767,0.124-1.042,0.401c-0.303,0.305-0.474,0.771-0.524,1.428l-0.105,1.386h-0.512
			c-0.019,0.324-0.049,0.646-0.049,0.975c0,0.573,0.03,1.14,0.087,1.698l1.449-1.566C17.188,32.015,17.283,31.91,17.38,31.804z"/>
		<path fill="#FFFFFF" d="M43.799,40.624C41.138,44.259,36.851,46.63,32,46.63c-5.081,0-9.554-2.593-12.176-6.524h-2.138
			c2.829,4.984,8.173,8.353,14.314,8.353c8.621,0,15.683-6.632,16.388-15.071l-3.948,7.565L43.799,40.624z"/>
	</g>
</g>
</svg>
