<?xml version="1.0" standalone="no"?>
<!DOCTYPE svg PUBLIC "-//W3C//DTD SVG 1.1//EN" "http://www.w3.org/Graphics/SVG/1.1/DTD/svg11.dtd" >
<svg xmlns="http://www.w3.org/2000/svg">
<metadata></metadata>
<defs>
<font id="HelveticaNeueLTStdRegular" horiz-adv-x="556" >
<font-face units-per-em="1000" ascent="714" descent="-286" />
<missing-glyph horiz-adv-x="278" />
<glyph unicode="&#xfb01;" horiz-adv-x="518" d="M12 442v75h87v77q0 63 36.5 95.5t106.5 32.5q29 0 55 -8v-74q-21 7 -48 7q-33 0 -49 -13t-16 -45v-72h100v-75h-100v-442h-85v442h-87zM365 0v517h85v-517h-85zM365 610v104h85v-104h-85z" />
<glyph unicode="&#xfb02;" horiz-adv-x="518" d="M12 442v75h87v77q0 63 36.5 95.5t106.5 32.5q29 0 55 -8v-74q-21 7 -48 7q-33 0 -49 -13t-16 -45v-72h100v-75h-100v-442h-85v442h-87zM365 0v714h85v-714h-85z" />
<glyph horiz-adv-x="0" />
<glyph horiz-adv-x="1000" />
<glyph unicode=" "  horiz-adv-x="278" />
<glyph unicode="&#x09;" horiz-adv-x="278" />
<glyph unicode="&#xa0;" horiz-adv-x="278" />
<glyph unicode="!" horiz-adv-x="259" d="M74 0v111h111v-111h-111zM82 494v220h95v-220l-25 -311h-45z" />
<glyph unicode="&#x22;" horiz-adv-x="426" d="M109 456v258h68v-258h-68zM249 456v258h68v-258h-68z" />
<glyph unicode="#" d="M34 206v68h107l21 150h-102v68h111l29 205h69l-29 -205h124l29 205h69l-29 -205h89v-68h-98l-21 -150h91v-68h-101l-29 -206h-69l29 206h-124l-29 -206h-69l29 206h-97zM210 274h124l21 150h-124z" />
<glyph unicode="$" d="M25 218h85q2 -65 40.5 -105t100.5 -50v265q-111 27 -158 68t-47 125q0 89 58.5 147t146.5 63v66h55v-67q156 -19 197 -198h-85q-20 99 -112 116v-246l60 -16q23 -6 47 -18t51 -33t44 -56.5t17 -78.5q0 -94 -60.5 -151.5t-158.5 -65.5v-82h-55v82q-99 10 -158.5 71 t-67.5 164zM136 530q0 -49 28 -72t87 -41v234q-51 -6 -83 -36.5t-32 -84.5zM306 63q129 10 129 128q0 52 -32.5 78.5t-96.5 44.5v-251z" />
<glyph unicode="%" horiz-adv-x="1000" d="M92 506q0 90 38 146.5t124 56.5q160 0 160 -200q0 -86 -39.5 -143.5t-120.5 -57.5q-85 0 -123.5 54.5t-38.5 143.5zM167 508q0 -145 84 -145q88 0 88 146q0 145 -85 145q-87 0 -87 -146zM188 -22l538 744h85l-537 -744h-86zM586 186q0 90 38 146.5t124 56.5 q160 0 160 -200q0 -86 -39.5 -143.5t-120.5 -57.5q-85 0 -123.5 54.5t-38.5 143.5zM661 188q0 -145 84 -145q88 0 88 146q0 145 -85 145q-87 0 -87 -146z" />
<glyph unicode="&#x26;" horiz-adv-x="630" d="M33 183q0 77 43 125.5t124 90.5q-6 9 -23 31.5t-23 32.5t-16 28.5t-13.5 36.5t-3.5 39q0 61 43.5 104t117.5 43q72 0 122.5 -38.5t50.5 -107.5q0 -109 -134 -185l129 -157q20 54 23 111h81q-5 -60 -14.5 -92.5t-33.5 -83.5l139 -161h-111l-76 89q-31 -49 -86 -75 t-116 -26q-68 0 -115.5 21.5t-69 55t-30 62.5t-8.5 56zM123 184q0 -52 41 -86.5t95 -34.5q95 0 152 85l-164 197q-62 -35 -93 -69t-31 -92zM206 563q0 -9 2 -18t7 -19t8 -17t12 -19t12.5 -16.5t14.5 -18t13 -16.5q27 17 44.5 31t34 39.5t16.5 53.5q0 32 -22.5 54t-59.5 22 q-33 0 -57.5 -19.5t-24.5 -56.5z" />
<glyph unicode="'" horiz-adv-x="278" d="M105 456v258h68v-258h-68z" />
<glyph unicode="(" horiz-adv-x="259" d="M47 270q0 118 40.5 239t116.5 222h65q-132 -208 -132 -461q0 -255 132 -468h-65q-78 121 -117.5 232.5t-39.5 235.5z" />
<glyph unicode=")" horiz-adv-x="259" d="M-10 -198q132 208 132 461q0 255 -132 468h65q78 -121 117.5 -232.5t39.5 -235.5q0 -118 -40.5 -239t-116.5 -222h-65z" />
<glyph unicode="*" horiz-adv-x="352" d="M24 593l18 48l106 -40v113h53v-113l107 40l20 -48l-109 -38l66 -91l-41 -31l-69 96l-65 -96l-45 31l65 91z" />
<glyph unicode="+" horiz-adv-x="600" d="M48 219v68h218v219h68v-219h218v-68h-218v-219h-68v219h-218z" />
<glyph unicode="," horiz-adv-x="278" d="M83 0v111h111v-101q0 -126 -110 -157v50q31 10 45.5 39.5t12.5 57.5h-59z" />
<glyph unicode="-" horiz-adv-x="389" d="M50 238v80h289v-80h-289z" />
<glyph unicode="." horiz-adv-x="278" d="M83 0v111h111v-111h-111z" />
<glyph unicode="/" horiz-adv-x="333" d="M-18 -17l296 748h73l-296 -748h-73z" />
<glyph unicode="0" d="M42 348q0 58 3 99t16.5 94.5t37.5 87t69.5 57t109.5 23.5t109.5 -23.5t69.5 -57t37.5 -87t16.5 -94.5t3 -99q0 -57 -3 -98.5t-16.5 -94.5t-37.5 -86.5t-69.5 -57t-109.5 -23.5t-109.5 23.5t-69.5 57t-37.5 86.5t-16.5 94.5t-3 98.5zM132 349q0 -37 1 -59t4.5 -61 t13 -63.5t25 -50.5t41.5 -39t61 -13t61 13t41.5 39t25 50.5t13 63.5t4.5 61t1 59q0 36 -1 58.5t-4.5 61t-13 63.5t-25 50.5t-41.5 38.5t-61 13t-61 -13t-41.5 -38.5t-25 -50.5t-13 -63.5t-4.5 -61t-1 -58.5z" />
<glyph unicode="1" d="M87 508v68q180 0 204 133h65v-709h-85v508h-184z" />
<glyph unicode="2" d="M24 0q5 60 21.5 106t47 80t57.5 55t73 49q102 63 141.5 105.5t39.5 110.5q0 57 -39.5 92.5t-97.5 35.5q-69 0 -104.5 -52.5t-33.5 -123.5h-85q-5 110 56.5 180.5t171.5 70.5q97 0 159.5 -54t62.5 -150q0 -84 -45 -138t-127 -105q-8 -5 -37 -22t-39.5 -24l-33 -22t-33 -26 t-24.5 -26.5t-21 -32t-11 -34.5h364v-75h-463z" />
<glyph unicode="3" d="M30 219h85q2 -71 41 -113.5t110 -42.5q65 0 109.5 37.5t44.5 99.5q0 64 -42.5 100t-108.5 36q-27 0 -51 -3v72q13 -1 37 -1q57 0 96 30.5t39 85.5q0 54 -35 84t-91 30q-66 0 -99.5 -43.5t-34.5 -110.5h-85q4 105 60 167t159 62q97 0 156.5 -48t59.5 -142q0 -45 -28 -83 t-70 -58v-2q63 -14 95.5 -60t32.5 -112q0 -102 -69.5 -159t-174.5 -57q-109 0 -173.5 61.5t-62.5 169.5z" />
<glyph unicode="4" d="M28 166v82l323 461h68v-468h96v-75h-96v-166h-80v166h-311zM101 241h238v347h-2z" />
<glyph unicode="5" d="M35 191h85q4 -56 45 -92t104 -36q64 0 107 43.5t43 124.5q0 71 -44.5 116t-115.5 45q-77 0 -132 -67l-73 4l66 368h350v-75h-286l-38 -204l2 -2q45 51 132 51q100 0 164.5 -63t64.5 -180q0 -97 -65.5 -166.5t-182.5 -69.5q-95 0 -159.5 55t-66.5 148z" />
<glyph unicode="6" d="M38 329q0 78 13 142.5t41.5 120t81 86.5t125.5 31q88 0 140.5 -47.5t59.5 -133.5h-85q-6 49 -37.5 77.5t-81.5 28.5q-162 0 -172 -269l2 -2q57 93 177 93q100 0 158.5 -64.5t58.5 -165.5q0 -42 -12.5 -81.5t-38.5 -76t-74 -58.5t-112 -22q-244 0 -244 341zM139 221 q0 -68 39.5 -113t107.5 -45q66 0 104.5 45.5t38.5 111.5q0 70 -36.5 115.5t-106.5 45.5q-69 0 -108 -45.5t-39 -114.5z" />
<glyph unicode="7" d="M50 617v80h459v-73q-108 -107 -185 -283t-87 -341h-95q12 173 87 332.5t193 284.5h-372z" />
<glyph unicode="8" d="M40 204q0 63 32.5 109.5t91.5 67.5q-44 18 -71.5 58.5t-27.5 88.5q0 84 61 132.5t147 48.5q108 0 161.5 -53t53.5 -128q0 -47 -27 -87t-71 -60q126 -40 126 -177q0 -100 -66.5 -158t-168.5 -58q-107 0 -174 55.5t-67 160.5zM130 200q0 -63 42 -100t109 -37q63 0 104 39 t41 99q0 57 -42.5 96t-103.5 39q-64 0 -107 -38t-43 -98zM155 525q0 -56 35 -85t91 -29q52 0 84.5 30.5t32.5 83.5q0 52 -33 80.5t-86 28.5t-88.5 -29t-35.5 -80z" />
<glyph unicode="9" d="M34 478q0 103 65 167t168 64q243 0 243 -339q0 -382 -246 -382q-92 0 -149.5 47t-65.5 136h85q4 -50 40.5 -79t89.5 -29q153 0 160 274l-2 2q-24 -45 -68 -71.5t-96 -26.5q-106 0 -165 65t-59 172zM124 466q0 -60 40 -105t100 -45q65 0 105 45.5t40 110.5q0 69 -39 115.5 t-107 46.5q-71 0 -105 -48t-34 -120z" />
<glyph unicode=":" horiz-adv-x="278" d="M83 0v111h111v-111h-111zM83 406v111h111v-111h-111z" />
<glyph unicode=";" horiz-adv-x="278" d="M83 0v111h111v-101q1 -58 -26.5 -99.5t-83.5 -57.5v50q31 10 45.5 39.5t12.5 57.5h-59zM83 406v111h111v-111h-111z" />
<glyph unicode="&#x3c;" horiz-adv-x="600" d="M46 222v62l508 230v-68l-425 -193l425 -193v-68z" />
<glyph unicode="=" horiz-adv-x="600" d="M48 118v68h504v-68h-504zM48 320v68h504v-68h-504z" />
<glyph unicode="&#x3e;" horiz-adv-x="600" d="M46 -8v68l425 193l-425 193v68l508 -230v-62z" />
<glyph unicode="?" d="M55 491q-2 105 59.5 172.5t164.5 67.5q94 0 152.5 -53.5t58.5 -146.5q0 -55 -22.5 -92.5t-63.5 -77.5q-31 -29 -44 -43t-28 -43.5t-15 -61.5v-39h-85v47q0 24 6.5 46.5t12.5 35.5t23.5 34t22 25.5l25.5 25.5q47 47 60 71q21 36 18 80q-4 55 -36 86t-85 31q-68 0 -104 -46 t-35 -119h-85zM218 0v111h111v-111h-111z" />
<glyph unicode="@" horiz-adv-x="800" d="M42 360q0 154 109 262.5t262 108.5q141 0 240.5 -87.5t99.5 -220.5q0 -62 -23 -118t-58.5 -92.5t-76 -58t-76.5 -21.5q-27 0 -45 16.5t-19 48.5h-3q-57 -67 -124 -67q-63 0 -103 45.5t-40 112.5q0 110 67 197t168 87q81 0 112 -82l23 63h63l-84 -284q-11 -37 -11 -51 q0 -31 24 -31q46 0 92 75.5t46 154.5q0 114 -80.5 186t-190.5 72q-127 0 -215.5 -94.5t-88.5 -226.5q0 -133 91 -225t218 -92q71 0 138.5 33t109.5 88h63q-48 -82 -132 -129t-181 -47q-158 0 -266.5 109.5t-108.5 267.5zM260 296q0 -42 24.5 -69.5t61.5 -27.5q61 0 108 72.5 t47 140.5q0 36 -25 64.5t-56 28.5q-66 0 -113 -68.5t-47 -140.5z" />
<glyph unicode="A" horiz-adv-x="648" d="M-7 0l279 714h105l279 -714h-105l-78 215h-302l-80 -215h-98zM201 295h242l-119 333h-2z" />
<glyph unicode="B" horiz-adv-x="685" d="M78 0v714h259q146 0 189 -26q84 -50 84 -149q0 -56 -28 -98t-78 -62v-2q65 -13 100.5 -59t35.5 -113q0 -84 -58 -144.5t-159 -60.5h-345zM173 80h238q61 0 97.5 34.5t36.5 93.5q0 119 -155 119h-217v-247zM173 407h190q80 0 116 28.5t36 85.5q0 36 -11.5 59.5t-34.5 34.5 t-47 15t-59 4h-190v-227z" />
<glyph unicode="C" horiz-adv-x="722" d="M43 355q0 162 89.5 269t248.5 107q116 0 197 -60.5t97 -171.5h-95q-15 74 -69 113t-131 39q-120 0 -181 -83.5t-61 -205.5q0 -131 60.5 -215t182.5 -84q91 0 145 57t61 149h95q-14 -135 -94.5 -210.5t-214.5 -75.5q-160 0 -245 104t-85 268z" />
<glyph unicode="D" horiz-adv-x="704" d="M78 0v714h245q167 0 255 -85t88 -255q0 -374 -343 -374h-245zM173 80h158q26 0 50.5 3.5t61.5 20t63 44.5t45.5 83t19.5 130q0 134 -56 203.5t-182 69.5h-160v-554z" />
<glyph unicode="E" horiz-adv-x="611" d="M78 0v714h493v-80h-398v-227h371v-80h-371v-247h401v-80h-496z" />
<glyph unicode="F" horiz-adv-x="574" d="M78 0v714h469v-80h-374v-227h328v-80h-328v-327h-95z" />
<glyph unicode="G" horiz-adv-x="759" d="M43 343q0 165 89 276.5t251 111.5q123 0 205.5 -58.5t101.5 -178.5h-95q-14 78 -71.5 117.5t-140.5 39.5q-62 0 -110.5 -25.5t-77 -69t-43 -96.5t-14.5 -112q0 -118 65.5 -201.5t179.5 -83.5q108 0 171 67q58 61 58 151v15h-228v80h313v-376h-60l-25 89 q-39 -53 -100.5 -79.5t-128.5 -26.5q-153 0 -246.5 106.5t-93.5 253.5z" />
<glyph unicode="H" horiz-adv-x="722" d="M78 0v714h95v-307h376v307h95v-714h-95v327h-376v-327h-95z" />
<glyph unicode="I" horiz-adv-x="259" d="M82 0v714h95v-714h-95z" />
<glyph unicode="J" horiz-adv-x="519" d="M22 191v44h95v-30q0 -69 25 -105.5t90 -36.5q62 0 88 33t26 96v522h95v-536q0 -83 -50 -139t-161 -56q-100 0 -154 54t-54 154z" />
<glyph unicode="K" horiz-adv-x="667" d="M78 0v714h95v-356l362 356h123l-301 -288l313 -426h-120l-258 361l-119 -111v-250h-95z" />
<glyph unicode="L" d="M78 0v714h95v-634h378v-80h-473z" />
<glyph unicode="M" horiz-adv-x="871" d="M80 0v714h130l225 -600l226 600h130v-714h-90v594h-2l-223 -594h-81l-223 594h-2v-594h-90z" />
<glyph unicode="N" horiz-adv-x="722" d="M77 0v714h101l376 -579h2v579h90v-714h-104l-373 573h-2v-573h-90z" />
<glyph unicode="O" horiz-adv-x="760" d="M38 357q0 100 37 183t116.5 137t188.5 54t188.5 -54t116.5 -137t37 -183t-37 -183t-116.5 -137t-188.5 -54t-188.5 54t-116.5 137t-37 183zM133 357q0 -76 24.5 -140.5t82 -109t140.5 -44.5t140.5 44.5t82 109t24.5 140.5t-24.5 140.5t-82 109t-140.5 44.5t-140.5 -44.5 t-82 -109t-24.5 -140.5z" />
<glyph unicode="P" horiz-adv-x="648" d="M78 0v714h313q106 0 162.5 -55.5t56.5 -155.5t-57 -156q-56 -55 -158 -55h-4h-218v-292h-95zM173 372h186h2q154 0 154 131t-156 131h-186v-262z" />
<glyph unicode="Q" horiz-adv-x="760" d="M38 357q0 100 37 183t116.5 137t188.5 54t188.5 -54t116.5 -137t37 -183q0 -179 -108 -284l94 -75l-48 -60l-109 88q-72 -43 -171 -43q-109 0 -188.5 54t-116.5 137t-37 183zM133 357q0 -76 24.5 -140.5t82 -109t140.5 -44.5q53 0 99 20l-79 63l50 58l95 -76 q82 81 82 229q0 76 -24.5 140.5t-82 109t-140.5 44.5t-140.5 -44.5t-82 -109t-24.5 -140.5z" />
<glyph unicode="R" horiz-adv-x="685" d="M78 0v714h336q100 0 158.5 -50.5t58.5 -136.5q0 -67 -31 -115.5t-93 -65.5v-2q57 -11 79 -48t28 -99q1 -8 3.5 -50.5t5 -58.5t11 -43.5t22.5 -44.5h-106q-12 13 -15 40.5t-4.5 68t-6.5 67.5q-4 31 -10 50.5t-18.5 39.5t-35 29.5t-55.5 9.5h-232v-305h-95zM173 385h198 q77 0 121 27.5t44 99.5q0 55 -31.5 88.5t-95.5 33.5h-236v-249z" />
<glyph unicode="S" horiz-adv-x="648" d="M37 235h90q0 -85 60 -128.5t148 -43.5q76 0 128.5 30t52.5 100q0 26 -11.5 46.5t-29 33.5t-46.5 24t-54.5 17t-62.5 14q-16 3 -24 5q-41 9 -68.5 16.5t-60.5 23t-53 34t-33.5 48t-13.5 67.5q0 102 76 155.5t183 53.5q115 0 187 -56.5t76 -169.5h-90q-16 146 -177 146 q-68 0 -114 -29t-46 -93q0 -14 3.5 -26.5t12.5 -22t17.5 -17.5t24.5 -15t28 -11.5t33 -10t34.5 -8.5t38 -8t37.5 -8q50 -11 85 -24t70.5 -35.5t54 -59.5t18.5 -87q0 -72 -44 -122t-104.5 -70.5t-130.5 -20.5q-128 0 -211.5 64t-83.5 188z" />
<glyph unicode="T" horiz-adv-x="574" d="M2 634v80h571v-80h-238v-634h-95v634h-238z" />
<glyph unicode="U" horiz-adv-x="722" d="M74 258v456h95v-456q0 -94 51.5 -144.5t146.5 -50.5q90 0 138 50.5t48 144.5v456h95v-456q0 -134 -73 -204.5t-208 -70.5q-142 0 -217.5 68t-75.5 207z" />
<glyph unicode="V" horiz-adv-x="611" d="M-1 714h103l204 -619h2l206 619h99l-254 -714h-108z" />
<glyph unicode="W" horiz-adv-x="926" d="M12 714h97l140 -594h2l160 594h103l158 -594h2l145 594h95l-191 -714h-99l-163 600h-2l-165 -600h-99z" />
<glyph unicode="X" horiz-adv-x="611" d="M-1 0l249 367l-235 347h114l178 -279l186 279h106l-236 -347l251 -367h-116l-192 295l-198 -295h-107z" />
<glyph unicode="Y" horiz-adv-x="648" d="M2 714h113l214 -340l209 340h108l-273 -422v-292h-95v292z" />
<glyph unicode="Z" horiz-adv-x="611" d="M22 0v80l444 554h-410v80h522v-80l-443 -554h455v-80h-568z" />
<glyph unicode="[" horiz-adv-x="259" d="M72 -198v929h187v-68h-107v-793h107v-68h-187z" />
<glyph unicode="\" horiz-adv-x="333" d="M-18 731h73l296 -748h-73z" />
<glyph unicode="]" horiz-adv-x="259" d="M0 -130h107v793h-107v68h187v-929h-187v68z" />
<glyph unicode="^" horiz-adv-x="600" d="M50 264l218 433h64l218 -433h-70l-181 360l-178 -360h-71z" />
<glyph unicode="_" horiz-adv-x="500" d="M0 -75h500v-50h-500v50z" />
<glyph unicode="`" horiz-adv-x="222" d="M-23 731h109l86 -143h-64z" />
<glyph unicode="a" horiz-adv-x="537" d="M36 133q0 42 14 71.5t42 46t53.5 25t65.5 16.5q20 4 53 8.5t50 8t36 10t27 19t8 30.5q0 86 -115 86q-124 0 -129 -98h-85q4 90 64 131.5t155 41.5q194 0 194 -142v-266q0 -35 4 -46.5t23 -11.5q12 0 26 5v-66q-23 -14 -61 -14q-72 0 -72 80q-68 -80 -182 -80 q-76 0 -123.5 36t-47.5 109zM126 139q0 -39 28.5 -57.5t71.5 -18.5q76 0 117 37.5t41 79.5v87q-15 -11 -37.5 -17t-63 -11t-53.5 -7q-49 -9 -76.5 -29.5t-27.5 -63.5z" />
<glyph unicode="b" horiz-adv-x="593" d="M67 0v714h85v-267h2q20 41 64.5 61.5t100.5 20.5q114 0 176 -78t62 -194t-61.5 -192.5t-174.5 -76.5q-47 0 -94 19.5t-73 61.5h-2v-69h-85zM149 259q0 -84 40.5 -140t122.5 -56q81 0 118 57.5t37 142.5q0 79 -41 135t-119 56q-80 0 -119 -57t-39 -138z" />
<glyph unicode="c" horiz-adv-x="537" d="M36 252q0 122 63 199.5t181 77.5q93 0 153.5 -45t69.5 -133h-88q-10 49 -43 76t-85 27q-44 0 -76.5 -16.5t-50.5 -45.5t-26 -63.5t-8 -76.5q0 -79 37.5 -134t113.5 -55q61 0 97.5 33.5t44.5 92.5h87q-14 -96 -73 -148.5t-155 -52.5q-116 0 -179 72.5t-63 191.5z" />
<glyph unicode="d" horiz-adv-x="593" d="M36 260q0 116 61.5 192.5t174.5 76.5q47 0 94 -19.5t73 -61.5h2v266h85v-714h-85v70h-2q-20 -41 -64.5 -61.5t-100.5 -20.5q-114 0 -176 78t-62 194zM126 254q0 -79 41 -135t119 -56q80 0 119 57t39 138q0 84 -40.5 140t-122.5 56q-81 0 -118 -57.5t-37 -142.5z" />
<glyph unicode="e" horiz-adv-x="537" d="M36 260q0 116 68.5 192.5t174.5 76.5q53 0 95 -19t68 -49t43 -70q17 -39 23 -79q5 -30 5 -61v-18h-387v-7q0 -68 39 -114q41 -49 122 -49q111 0 134 101h84q-17 -85 -75 -130.5t-146 -45.5q-119 0 -181.5 74t-66.5 198zM126 308h297q-3 62 -45 104t-104 42 q-64 0 -103.5 -42t-44.5 -104z" />
<glyph unicode="f" horiz-adv-x="296" d="M12 442v75h87v77q0 63 36.5 95.5t106.5 32.5q29 0 55 -8v-74q-21 7 -48 7q-33 0 -49 -13t-16 -45v-72h100v-75h-100v-442h-85v442h-87z" />
<glyph unicode="g" horiz-adv-x="574" d="M36 256q0 49 12.5 94.5t39 87t75 66.5t112.5 25q107 0 154 -86h1v74h80v-473q0 -254 -240 -254q-53 0 -98 13.5t-79.5 49.5t-36.5 89h85q3 -42 43.5 -63t90.5 -21q155 0 155 196v34h-2q-20 -45 -64.5 -69.5t-96.5 -24.5q-110 0 -170.5 75t-60.5 187zM126 266 q0 -51 12.5 -93t46.5 -73t87 -31q78 0 116 59t38 141q0 77 -36.5 131t-110.5 54q-77 0 -115 -53.5t-38 -134.5z" />
<glyph unicode="h" d="M64 0v714h85v-273h2q20 44 66 66t97 22q96 0 137 -49.5t41 -139.5v-340h-85v350q0 48 -28.5 76t-76.5 28q-75 0 -114 -44.5t-39 -117.5v-292h-85z" />
<glyph unicode="i" horiz-adv-x="222" d="M69 0v517h85v-517h-85zM69 610v104h85v-104h-85z" />
<glyph unicode="j" horiz-adv-x="222" d="M-14 -121q12 -2 35 -2q28 0 38 15.5t10 55.5v569h85v-583q0 -67 -33 -99.5t-91 -32.5q-24 0 -44 4v73zM69 610v104h85v-104h-85z" />
<glyph unicode="k" horiz-adv-x="519" d="M69 0v714h85v-423l236 226h114l-205 -188l220 -329h-108l-177 270l-80 -74v-196h-85z" />
<glyph unicode="l" horiz-adv-x="222" d="M69 0v714h85v-714h-85z" />
<glyph unicode="m" horiz-adv-x="853" d="M64 0v517h80v-76h2q58 88 167 88q51 0 89 -21.5t53 -66.5q26 41 69 64.5t93 23.5q172 0 172 -150v-379h-85v339q0 55 -21 85t-79 30q-61 0 -98 -36t-37 -96v-322h-85v339q0 55 -21.5 85t-75.5 30q-35 0 -63.5 -15t-43.5 -37t-23 -43t-8 -37v-322h-85z" />
<glyph unicode="n" d="M64 0v517h80v-82h2q53 94 168 94q96 0 137 -49.5t41 -139.5v-340h-85v350q0 48 -28.5 76t-76.5 28q-75 0 -114 -44.5t-39 -117.5v-292h-85z" />
<glyph unicode="o" horiz-adv-x="574" d="M36 258q0 119 66 195t185 76t185 -76t66 -195q0 -118 -66 -194t-185 -76t-185 76t-66 194zM126 258q0 -91 46 -143t115 -52t115 52t46 143t-46 143.5t-115 52.5t-115 -52.5t-46 -143.5z" />
<glyph unicode="p" horiz-adv-x="593" d="M67 -198v715h85v-70h2q20 41 64.5 61.5t100.5 20.5q114 0 176 -78t62 -194t-61.5 -192.5t-174.5 -76.5q-47 0 -94 19.5t-73 61.5h-2v-267h-85zM149 259q0 -84 40.5 -140t122.5 -56q81 0 118 57.5t37 142.5q0 79 -41 135t-119 56q-80 0 -119 -57t-39 -138z" />
<glyph unicode="q" horiz-adv-x="593" d="M36 260q0 116 61.5 192.5t174.5 76.5q47 0 94 -19.5t73 -61.5h2v69h85v-715h-85v268h-2q-20 -41 -64.5 -61.5t-100.5 -20.5q-114 0 -176 78t-62 194zM126 254q0 -79 41 -135t119 -56q80 0 119 57t39 138q0 84 -40.5 140t-122.5 56q-81 0 -118 -57.5t-37 -142.5z" />
<glyph unicode="r" horiz-adv-x="333" d="M61 0v517h80v-109h2q31 64 77 94q43 28 104 27h9v-90q-99 0 -143 -53t-44 -156v-230h-85z" />
<glyph unicode="s" horiz-adv-x="500" d="M31 163h85q2 -53 41 -76.5t98 -23.5q125 0 125 77q0 11 -2.5 20t-9.5 16.5t-12.5 13.5t-18 11t-20.5 8.5t-25 8t-25 6.5t-28 6t-28 6q-37 8 -62.5 17t-52.5 25.5t-40.5 42.5t-13.5 61q0 72 58 109.5t135 37.5q203 0 212 -162h-85q-4 46 -38 66.5t-82 20.5q-46 0 -78 -15 t-32 -51q0 -13 4.5 -23t15.5 -18t21 -14t28.5 -11t31 -8t35 -8t33.5 -8q38 -8 63.5 -17t52 -25.5t40 -42.5t13.5 -62q0 -44 -19 -77t-52 -51t-70 -26.5t-79 -8.5q-95 0 -155 42.5t-64 132.5z" />
<glyph unicode="t" horiz-adv-x="315" d="M9 442v75h88v155h85v-155h103v-75h-103v-321q0 -29 12 -37.5t52 -8.5h39v-75h-65q-69 0 -96 22.5t-27 90.5v329h-88z" />
<glyph unicode="u" d="M64 177v340h85v-350q0 -47 28.5 -75.5t76.5 -28.5q75 0 114 44.5t39 117.5v292h85v-517h-80v82h-2q-53 -94 -168 -94q-96 0 -137 49.5t-41 139.5z" />
<glyph unicode="v" horiz-adv-x="500" d="M14 517h95l145 -431h2l141 431h89l-189 -517h-91z" />
<glyph unicode="w" horiz-adv-x="758" d="M17 517h94l117 -423h2l104 423h93l108 -423h2l116 423h88l-165 -517h-90l-105 411h-2l-104 -411h-92z" />
<glyph unicode="x" horiz-adv-x="518" d="M9 0l194 272l-180 245h109l124 -181l129 181h102l-178 -238l200 -279h-109l-144 214l-144 -214h-103z" />
<glyph unicode="y" horiz-adv-x="500" d="M8 517h96l151 -423h2l145 423h90l-225 -586q-30 -77 -62 -107.5t-88 -30.5q-35 0 -59 9v78q38 -12 50 -12q45 0 70 47l35 88z" />
<glyph unicode="z" horiz-adv-x="480" d="M22 0v65l312 377h-292v75h402v-58l-316 -384h330v-75h-436z" />
<glyph unicode="{" horiz-adv-x="333" d="M48 232v68q33 0 58 33.5t25 84.5v182q0 60 33.5 95.5t74.5 35.5h70v-60h-50q-48 0 -48 -86v-183q0 -61 -29.5 -94t-57.5 -40v-3q11 -1 24 -8t28 -21.5t25 -41.5t10 -63v-183q0 -86 48 -86h50v-60h-70q-41 0 -74.5 35.5t-33.5 95.5v182q0 52 -25 84.5t-58 32.5z" />
<glyph unicode="|" horiz-adv-x="222" d="M77 -214v1000h68v-1000h-68z" />
<glyph unicode="}" horiz-adv-x="333" d="M24 -138h50q48 0 48 86v183q0 61 29.5 94t57.5 40v3q-11 1 -24 8t-28 21.5t-25 41.5t-10 63v181q0 88 -48 88h-50v60h70q41 0 74.5 -35.5t33.5 -95.5v-182q0 -53 25 -85.5t58 -32.5v-68q-33 0 -58 -33t-25 -84v-182q0 -60 -33.5 -95.5t-74.5 -35.5h-70v60z" />
<glyph unicode="~" horiz-adv-x="600" d="M69 229q45 86 125 86q39 0 111 -32q10 -4 34.5 -16.5t40 -18t27.5 -5.5q19 0 37 14t26 25t25 37l36 -50q-20 -27 -33 -42t-38 -29.5t-54 -14.5q-42 0 -102 33q-69 39 -115 39q-49 0 -84 -76z" />
<glyph unicode="&#xa1;" horiz-adv-x="259" d="M74 406v111h111v-111h-111zM82 22l25 311h45l25 -311v-220h-95v220z" />
<glyph unicode="&#xa2;" d="M46 252q0 114 59 192t167 85v95h39v-95q85 -2 139 -46t64 -132h-87q-10 47 -39.5 74.5t-76.5 28.5v-391q102 10 121 126h85q-8 -81 -63 -141t-143 -60v-104h-39v104q-107 4 -166.5 77t-59.5 187zM136 252q0 -75 34 -129.5t102 -59.5v391q-72 -9 -104 -64.5t-32 -137.5z " />
<glyph unicode="&#xa3;" d="M47 55q47 32 78.5 78.5t31.5 100.5q0 39 -25 93h-85v45h58q-47 78 -47 156q0 92 66.5 147.5t161.5 55.5q113 0 175.5 -66t60.5 -192h-85q-5 183 -146 183q-60 0 -101.5 -38t-41.5 -93q0 -23 5.5 -46t11 -35.5t18.5 -37t17 -34.5h159v-45h-137q20 -38 20 -75 q0 -42 -18.5 -79t-39 -57.5t-58.5 -51.5l2 -2q66 29 105 29q37 0 95 -15q61 -18 84 -18q42 0 89 37l43 -66q-54 -46 -146 -46q-37 0 -99 20q-69 21 -105 21q-48 0 -100 -35z" />
<glyph unicode="&#xa4;" d="M25 145l55 58q-52 63 -52 146q0 94 54 148l-57 58l49 49l56 -56q61 51 151 51q85 0 143 -50l57 56l50 -51l-55 -55q52 -57 52 -148q0 -87 -52 -150l55 -56l-47 -47l-56 58q-58 -55 -148 -55q-92 0 -152 54l-55 -58zM113 349q0 -73 48.5 -123t118.5 -50q69 0 116 51 t47 124q0 71 -47 122t-115 51q-71 0 -119.5 -50.5t-48.5 -124.5z" />
<glyph unicode="&#xa5;" d="M0 714h109l174 -353l169 353h104l-178 -345h93v-60h-126l-18 -33v-42h144v-60h-144v-174h-95v174h-141v60h141v42l-18 33h-123v60h92z" />
<glyph unicode="&#xa6;" horiz-adv-x="222" d="M77 -89v250h68v-250h-68zM77 411v250h68v-250h-68z" />
<glyph unicode="&#xa7;" d="M35 325q0 46 31 86t76 52q-46 48 -46 106q0 74 55.5 118t129.5 44q84 0 133 -47t51 -138h-85q-1 47 -28 78.5t-73 31.5q-42 0 -68.5 -22t-26.5 -64q0 -10 2.5 -20t9 -19.5t12.5 -17t18 -16.5t20 -14.5t24 -15t24.5 -14.5t28 -15.5t27.5 -14.5q78 -41 122 -85t44 -109 q0 -48 -29 -89t-75 -58q59 -44 59 -120q0 -72 -52.5 -116t-134.5 -44q-88 0 -141.5 50.5t-59.5 138.5h85q1 -51 32 -82.5t82 -31.5q40 0 70.5 22t30.5 61q0 15 -4.5 28t-15.5 25.5t-20.5 21.5t-29 21.5t-31 19t-37 20.5t-36.5 20q-38 20 -64.5 37.5t-54 43t-41.5 57.5 t-14 71zM117 329q0 -22 8 -40t28 -35t30.5 -23.5t38.5 -23.5q80 -42 140 -83q72 30 72 93q0 20 -9 37.5t-30 34.5t-30.5 23.5t-36.5 22.5q-121 74 -138 85q-30 -10 -51.5 -35.5t-21.5 -55.5z" />
<glyph unicode="&#xa8;" horiz-adv-x="222" d="M-28 592v104h90v-104h-90zM160 592v104h90v-104h-90z" />
<glyph unicode="&#xa9;" horiz-adv-x="800" d="M24 359q0 157 111 264.5t266 107.5t265 -107.5t110 -264.5q0 -159 -110 -267.5t-265 -108.5q-156 0 -266.5 108.5t-110.5 267.5zM92 359q0 -137 89 -229t220 -92q130 0 218.5 92t88.5 229q0 134 -88.5 225.5t-218.5 91.5q-131 0 -220 -91.5t-89 -225.5zM191 357 q0 102 59 165t160 63q74 0 125.5 -39.5t62.5 -112.5h-63q-8 43 -41.5 70t-82.5 27q-72 0 -112 -48t-40 -123q0 -73 42.5 -124.5t111.5 -51.5q49 0 82 28.5t40 73.5h64q-16 -72 -66.5 -114.5t-119.5 -42.5q-100 0 -161 64.5t-61 164.5z" />
<glyph unicode="&#xaa;" horiz-adv-x="378" d="M25 469q0 87 120 99q72 8 93.5 15.5t21.5 26.5q0 30 -20.5 39.5t-56.5 9.5q-80 0 -83 -56h-60q3 54 43.5 80t103.5 26q130 0 130 -87v-160q0 -32 14 -32q15 0 22 2v-44q-21 -8 -43 -8q-48 0 -51 46q-44 -46 -117 -46q-51 0 -84 22.5t-33 66.5zM93 471q0 -41 62 -41 q51 0 76.5 21t25.5 48v47q-15 -9 -100 -23q-31 -5 -47.5 -16.5t-16.5 -35.5z" />
<glyph unicode="&#xab;" horiz-adv-x="463" d="M50 234v88l152 120v-86l-100 -78l100 -78v-86zM246 234v88l152 120v-86l-100 -78l100 -78v-86z" />
<glyph unicode="&#xac;" horiz-adv-x="600" d="M48 320v68h504v-279h-68v211h-436z" />
<glyph unicode="&#xad;" horiz-adv-x="389" d="M50 238v80h289v-80h-289z" />
<glyph unicode="&#xae;" horiz-adv-x="800" d="M24 359q0 157 111 264.5t266 107.5t265 -107.5t110 -264.5q0 -159 -110 -267.5t-265 -108.5q-156 0 -266.5 108.5t-110.5 267.5zM92 359q0 -137 89 -229t220 -92q130 0 218.5 92t88.5 229q0 134 -88.5 225.5t-218.5 91.5q-131 0 -220 -91.5t-89 -225.5zM255 139v437h169 q153 0 153 -125q0 -107 -115 -119l125 -193h-73l-119 188h-72v-188h-68zM323 382h71q22 0 35.5 1t30.5 4.5t26.5 11t16 21.5t6.5 34q0 67 -96 67h-90v-139z" />
<glyph unicode="&#xaf;" horiz-adv-x="222" d="M-59 620v55h341v-55h-341z" />
<glyph unicode="&#xb0;" horiz-adv-x="400" d="M56 565q0 60 42 102t102 42t102 -42t42 -102t-42 -102t-102 -42t-102 42t-42 102zM106 565q0 -37 26 -65.5t68 -28.5t68 28.5t26 65.5t-26 65.5t-68 28.5t-68 -28.5t-26 -65.5z" />
<glyph unicode="&#xb1;" horiz-adv-x="600" d="M48 0v68h504v-68h-504zM48 271v68h218v166h68v-166h218v-68h-218v-167h-68v167h-218z" />
<glyph unicode="&#xb2;" horiz-adv-x="333" d="M14 280q3 68 33.5 104t91.5 70q66 38 91 63.5t25 66.5q0 31 -24 50.5t-59 19.5q-42 0 -62 -28t-20 -71h-68q0 69 42 111.5t111 42.5q63 0 105.5 -34t42.5 -92q0 -27 -9 -49t-27.5 -40t-34.5 -29.5t-42 -26.5q-7 -4 -32.5 -19t-35 -21t-26 -18t-24 -22.5t-10.5 -22.5h235 v-55h-303z" />
<glyph unicode="&#xb3;" horiz-adv-x="333" d="M4 414h68q1 -41 25 -63.5t67 -22.5q39 0 66.5 19.5t27.5 52.5q0 39 -27 58t-66 19h-33v50h24q36 0 59.5 16t23.5 49q0 29 -21.5 45.5t-55.5 16.5q-39 0 -59.5 -24t-20.5 -62h-68q4 65 43 103t105 38q64 0 104.5 -30.5t40.5 -86.5q0 -27 -19.5 -50t-48.5 -35v-2 q42 -8 64.5 -35.5t22.5 -66.5q0 -62 -47.5 -96t-114.5 -34q-70 0 -115 37t-45 104z" />
<glyph unicode="&#xb4;" horiz-adv-x="222" d="M50 588l86 143h109l-131 -143h-64z" />
<glyph unicode="&#xb5;" d="M64 -198v715h85v-350q0 -47 28.5 -75.5t76.5 -28.5q75 0 114 44.5t39 117.5v292h85v-517h-80v82h-2q-53 -94 -168 -94q-67 0 -91 38h-2v-224h-85z" />
<glyph unicode="&#xb6;" horiz-adv-x="600" d="M48 508q0 97 61 151.5t167 54.5h239v-869h-68v814h-122v-814h-68v477q-91 0 -150 53.5t-59 132.5z" />
<glyph unicode="&#xb7;" horiz-adv-x="278" d="M75 311q0 26 19 45t45 19q25 0 44.5 -19.5t19.5 -44.5q0 -24 -19.5 -44t-43.5 -20q-26 0 -45.5 19t-19.5 45z" />
<glyph unicode="&#xb8;" horiz-adv-x="222" d="M5 -191l18 44q35 -13 61 -13q24 0 43 7.5t19 23.5q0 13 -13.5 22t-33.5 9q-17 0 -41 -8l-17 28l61 78h42l-42 -53l2 -2q10 7 33 7q34 0 59 -19t25 -54q0 -46 -37.5 -67.5t-86.5 -21.5q-40 0 -92 19z" />
<glyph unicode="&#xb9;" horiz-adv-x="333" d="M66 588v50q118 2 133 71h50v-429h-68v308h-115z" />
<glyph unicode="&#xba;" horiz-adv-x="384" d="M25 543q0 73 44 119.5t123 46.5t123 -46.5t44 -119.5q0 -74 -43 -118.5t-123 -44.5q-78 0 -123 45t-45 118zM93 543q0 -49 24.5 -81t75.5 -32q50 0 74 31.5t24 80.5q0 65 -29 91t-70 26q-43 0 -71 -29.5t-28 -86.5z" />
<glyph unicode="&#xbb;" horiz-adv-x="463" d="M65 114v86l100 78l-100 78v86l152 -120v-88zM261 114v86l100 78l-100 78v86l152 -120v-88z" />
<glyph unicode="&#xbc;" horiz-adv-x="834" d="M36 588v50q118 0 133 71h50v-429h-68v308h-115zM150 -28l435 753h64l-435 -753h-64zM462 96v58l210 275h51v-278h60v-55h-60v-96h-62v96h-199zM511 151h150v193h-2z" />
<glyph unicode="&#xbd;" horiz-adv-x="834" d="M36 588v50q118 0 133 71h50v-429h-68v308h-115zM135 -28l435 753h64l-435 -753h-64zM494 0q3 68 33.5 104t91.5 70q66 38 91 63.5t25 66.5q0 31 -24 50.5t-59 19.5q-42 0 -62 -28t-20 -71h-68q0 69 42 111.5t111 42.5q63 0 105.5 -34t42.5 -92q0 -27 -9 -49t-27.5 -40 t-34.5 -29.5t-42 -26.5q-7 -4 -32.5 -19t-35 -21t-26 -18t-24 -22.5t-10.5 -22.5h235v-55h-303z" />
<glyph unicode="&#xbe;" horiz-adv-x="834" d="M49 414h68q1 -41 25 -63.5t67 -22.5q39 0 66.5 19.5t27.5 52.5q0 39 -27 58t-66 19h-33v50h24q36 0 59.5 16t23.5 49q0 29 -21.5 45.5t-55.5 16.5q-39 0 -59.5 -24t-20.5 -62h-68q4 65 43 103t105 38q64 0 104.5 -30.5t40.5 -86.5q0 -27 -19.5 -50t-48.5 -35v-2 q42 -8 64.5 -35.5t22.5 -66.5q0 -62 -47.5 -96t-114.5 -34q-70 0 -115 37t-45 104zM215 -28l435 753h64l-435 -753h-64zM479 96v58l210 275h51v-278h60v-55h-60v-96h-62v96h-199zM529 147h150v193h-2z" />
<glyph unicode="&#xbf;" d="M68 -10q0 55 22.5 92.5t63.5 77.5q31 29 44 43t28 43.5t15 61.5v31h85v-39q0 -24 -6.5 -46.5t-12.5 -35.5t-23.5 -34t-22 -25.5l-25.5 -25.5q-47 -47 -60 -71q-21 -36 -18 -80q4 -55 36 -86t85 -31q68 0 104 46t35 119h85q2 -105 -59.5 -172.5t-164.5 -67.5 q-94 0 -152.5 53.5t-58.5 146.5zM226 406v111h111v-111h-111z" />
<glyph unicode="&#xc0;" horiz-adv-x="648" d="M-7 0l279 714h105l279 -714h-105l-78 215h-302l-80 -215h-98zM190 908h109l86 -143h-64zM201 295h242l-119 333h-2z" />
<glyph unicode="&#xc1;" horiz-adv-x="648" d="M-7 0l279 714h105l279 -714h-105l-78 215h-302l-80 -215h-98zM201 295h242l-119 333h-2zM263 765l86 143h109l-131 -143h-64z" />
<glyph unicode="&#xc2;" horiz-adv-x="648" d="M-7 0l279 714h105l279 -714h-105l-78 215h-302l-80 -215h-98zM174 765l103 143h93l104 -143h-84l-69 96l-70 -96h-77zM201 295h242l-119 333h-2z" />
<glyph unicode="&#xc3;" horiz-adv-x="648" d="M-7 0l279 714h105l279 -714h-105l-78 215h-302l-80 -215h-98zM155 774q14 51 38 80.5t67 29.5q28 0 74 -20t66 -20q33 0 46 44h52q-6 -44 -31 -80q-28 -31 -79 -31q-18 0 -66 20q-51 19 -67 19q-18 0 -33.5 -12t-14.5 -30h-52zM201 295h242l-119 333h-2z" />
<glyph unicode="&#xc4;" horiz-adv-x="648" d="M-7 0l279 714h105l279 -714h-105l-78 215h-302l-80 -215h-98zM185 769v104h90v-104h-90zM201 295h242l-119 333h-2zM373 769v104h90v-104h-90z" />
<glyph unicode="&#xc5;" horiz-adv-x="648" d="M-7 0l279 714h105l279 -714h-105l-78 215h-302l-80 -215h-98zM201 295h242l-119 333h-2zM211 839q0 47 33.5 80t79.5 33t79.5 -33t33.5 -80t-33.5 -80t-79.5 -33t-79.5 33t-33.5 80zM256 839q0 -29 20 -48.5t48 -19.5t48 19.5t20 48.5t-20 48.5t-48 19.5t-48 -19.5 t-20 -48.5z" />
<glyph unicode="&#xc6;" horiz-adv-x="926" d="M-7 0l361 714h535v-80h-351v-227h330v-80h-330v-247h357v-80h-447v208h-246l-102 -208h-107zM239 288h209v346h-41z" />
<glyph unicode="&#xc7;" horiz-adv-x="722" d="M43 355q0 162 89.5 269t248.5 107q116 0 197 -60.5t97 -171.5h-95q-15 74 -69 113t-131 39q-120 0 -181 -83.5t-61 -205.5q0 -131 60.5 -215t182.5 -84q91 0 145 57t61 149h95q-14 -132 -92.5 -208t-208.5 -77l-29 -37l2 -2q10 7 33 7q34 0 59 -19t25 -54 q0 -46 -37.5 -67.5t-86.5 -21.5q-40 0 -92 19l18 44q35 -13 61 -13q24 0 43 7.5t19 23.5q0 13 -13.5 22t-33.5 9q-17 0 -41 -8l-17 28l49 63q-145 11 -221 113t-76 257z" />
<glyph unicode="&#xc8;" horiz-adv-x="611" d="M78 0v714h493v-80h-398v-227h371v-80h-371v-247h401v-80h-496zM172 908h109l86 -143h-64z" />
<glyph unicode="&#xc9;" horiz-adv-x="611" d="M78 0v714h493v-80h-398v-227h371v-80h-371v-247h401v-80h-496zM245 765l86 143h109l-131 -143h-64z" />
<glyph unicode="&#xca;" horiz-adv-x="611" d="M78 0v714h493v-80h-398v-227h371v-80h-371v-247h401v-80h-496zM156 765l103 143h93l104 -143h-84l-69 96l-70 -96h-77z" />
<glyph unicode="&#xcb;" horiz-adv-x="611" d="M78 0v714h493v-80h-398v-227h371v-80h-371v-247h401v-80h-496zM167 769v104h90v-104h-90zM355 769v104h90v-104h-90z" />
<glyph unicode="&#xcc;" horiz-adv-x="259" d="M-4 908h109l86 -143h-64zM82 0v714h95v-714h-95z" />
<glyph unicode="&#xcd;" horiz-adv-x="259" d="M69 765l86 143h109l-131 -143h-64zM82 0v714h95v-714h-95z" />
<glyph unicode="&#xce;" horiz-adv-x="259" d="M-20 765l103 143h93l104 -143h-84l-69 96l-70 -96h-77zM82 0v714h95v-714h-95z" />
<glyph unicode="&#xcf;" horiz-adv-x="259" d="M-9 769v104h90v-104h-90zM82 0v714h95v-714h-95zM179 769v104h90v-104h-90z" />
<glyph unicode="&#xd0;" horiz-adv-x="704" d="M8 339v68h70v307h245q167 0 255 -85t88 -255q0 -374 -343 -374h-245v339h-70zM173 80h158q26 0 50.5 3.5t61.5 20t63 44.5t45.5 83t19.5 130q0 134 -56 203.5t-182 69.5h-160v-227h214v-68h-214v-259z" />
<glyph unicode="&#xd1;" horiz-adv-x="722" d="M77 0v714h101l376 -579h2v579h90v-714h-104l-373 573h-2v-573h-90zM192 774q14 51 38 80.5t67 29.5q28 0 74 -20t66 -20q33 0 46 44h52q-6 -44 -31 -80q-28 -31 -79 -31q-18 0 -66 20q-51 19 -67 19q-18 0 -33.5 -12t-14.5 -30h-52z" />
<glyph unicode="&#xd2;" horiz-adv-x="760" d="M38 357q0 100 37 183t116.5 137t188.5 54t188.5 -54t116.5 -137t37 -183t-37 -183t-116.5 -137t-188.5 -54t-188.5 54t-116.5 137t-37 183zM133 357q0 -76 24.5 -140.5t82 -109t140.5 -44.5t140.5 44.5t82 109t24.5 140.5t-24.5 140.5t-82 109t-140.5 44.5t-140.5 -44.5 t-82 -109t-24.5 -140.5zM246 908h109l86 -143h-64z" />
<glyph unicode="&#xd3;" horiz-adv-x="760" d="M38 357q0 100 37 183t116.5 137t188.5 54t188.5 -54t116.5 -137t37 -183t-37 -183t-116.5 -137t-188.5 -54t-188.5 54t-116.5 137t-37 183zM133 357q0 -76 24.5 -140.5t82 -109t140.5 -44.5t140.5 44.5t82 109t24.5 140.5t-24.5 140.5t-82 109t-140.5 44.5t-140.5 -44.5 t-82 -109t-24.5 -140.5zM319 765l86 143h109l-131 -143h-64z" />
<glyph unicode="&#xd4;" horiz-adv-x="760" d="M38 357q0 100 37 183t116.5 137t188.5 54t188.5 -54t116.5 -137t37 -183t-37 -183t-116.5 -137t-188.5 -54t-188.5 54t-116.5 137t-37 183zM133 357q0 -76 24.5 -140.5t82 -109t140.5 -44.5t140.5 44.5t82 109t24.5 140.5t-24.5 140.5t-82 109t-140.5 44.5t-140.5 -44.5 t-82 -109t-24.5 -140.5zM230 765l103 143h93l104 -143h-84l-69 96l-70 -96h-77z" />
<glyph unicode="&#xd5;" horiz-adv-x="760" d="M38 357q0 100 37 183t116.5 137t188.5 54t188.5 -54t116.5 -137t37 -183t-37 -183t-116.5 -137t-188.5 -54t-188.5 54t-116.5 137t-37 183zM133 357q0 -76 24.5 -140.5t82 -109t140.5 -44.5t140.5 44.5t82 109t24.5 140.5t-24.5 140.5t-82 109t-140.5 44.5t-140.5 -44.5 t-82 -109t-24.5 -140.5zM211 774q14 51 38 80.5t67 29.5q28 0 74 -20t66 -20q33 0 46 44h52q-6 -44 -31 -80q-28 -31 -79 -31q-18 0 -66 20q-51 19 -67 19q-18 0 -33.5 -12t-14.5 -30h-52z" />
<glyph unicode="&#xd6;" horiz-adv-x="760" d="M38 357q0 100 37 183t116.5 137t188.5 54t188.5 -54t116.5 -137t37 -183t-37 -183t-116.5 -137t-188.5 -54t-188.5 54t-116.5 137t-37 183zM133 357q0 -76 24.5 -140.5t82 -109t140.5 -44.5t140.5 44.5t82 109t24.5 140.5t-24.5 140.5t-82 109t-140.5 44.5t-140.5 -44.5 t-82 -109t-24.5 -140.5zM241 769v104h90v-104h-90zM429 769v104h90v-104h-90z" />
<glyph unicode="&#xd7;" horiz-adv-x="600" d="M71 72l182 182l-181 180l48 48l181 -180l180 180l48 -48l-180 -180l181 -182l-48 -48l-181 182l-182 -182z" />
<glyph unicode="&#xd8;" horiz-adv-x="760" d="M37 10l84 92q-83 103 -83 255q0 100 37 183t116.5 137t188.5 54q141 0 232 -88l79 87l32 -30l-82 -90q81 -104 81 -253q0 -100 -37 -183t-116.5 -137t-188.5 -54q-140 0 -229 86l-81 -89zM133 357q0 -109 50 -187l369 407q-64 74 -172 74q-83 0 -140.5 -44.5t-82 -109 t-24.5 -140.5zM210 134q63 -71 170 -71q83 0 140.5 44.5t82 109t24.5 140.5q0 108 -48 184z" />
<glyph unicode="&#xd9;" horiz-adv-x="722" d="M74 258v456h95v-456q0 -94 51.5 -144.5t146.5 -50.5q90 0 138 50.5t48 144.5v456h95v-456q0 -134 -73 -204.5t-208 -70.5q-142 0 -217.5 68t-75.5 207zM227 908h109l86 -143h-64z" />
<glyph unicode="&#xda;" horiz-adv-x="722" d="M74 258v456h95v-456q0 -94 51.5 -144.5t146.5 -50.5q90 0 138 50.5t48 144.5v456h95v-456q0 -134 -73 -204.5t-208 -70.5q-142 0 -217.5 68t-75.5 207zM300 765l86 143h109l-131 -143h-64z" />
<glyph unicode="&#xdb;" horiz-adv-x="722" d="M74 258v456h95v-456q0 -94 51.5 -144.5t146.5 -50.5q90 0 138 50.5t48 144.5v456h95v-456q0 -134 -73 -204.5t-208 -70.5q-142 0 -217.5 68t-75.5 207zM211 765l103 143h93l104 -143h-84l-69 96l-70 -96h-77z" />
<glyph unicode="&#xdc;" horiz-adv-x="722" d="M74 258v456h95v-456q0 -94 51.5 -144.5t146.5 -50.5q90 0 138 50.5t48 144.5v456h95v-456q0 -134 -73 -204.5t-208 -70.5q-142 0 -217.5 68t-75.5 207zM222 769v104h90v-104h-90zM410 769v104h90v-104h-90z" />
<glyph unicode="&#xdd;" horiz-adv-x="648" d="M2 714h113l214 -340l209 340h108l-273 -422v-292h-95v292zM263 765l86 143h109l-131 -143h-64z" />
<glyph unicode="&#xde;" horiz-adv-x="648" d="M78 0v714h95v-114h218q106 0 162.5 -55.5t56.5 -156.5q0 -100 -56.5 -155.5t-162.5 -54.5h-218v-178h-95zM173 258h186q156 -1 156 130q0 132 -156 132h-186v-262z" />
<glyph unicode="&#xdf;" d="M64 0v531q0 89 54.5 144.5t143.5 55.5q81 0 144 -46.5t63 -128.5q0 -121 -104 -155v-2q65 -8 100.5 -59t35.5 -120q0 -103 -64 -167.5t-167 -64.5q-15 0 -43 4v74q11 -3 34 -3q68 0 109 40.5t41 105.5q0 91 -45 120.5t-139 29.5v68q67 -4 109.5 23.5t42.5 92.5 q0 47 -32 80t-79 33q-58 0 -88.5 -31t-30.5 -109v-516h-85z" />
<glyph unicode="&#xe0;" horiz-adv-x="537" d="M36 133q0 42 14 71.5t42 46t53.5 25t65.5 16.5q20 4 53 8.5t50 8t36 10t27 19t8 30.5q0 86 -115 86q-124 0 -129 -98h-85q4 90 64 131.5t155 41.5q194 0 194 -142v-266q0 -35 4 -46.5t23 -11.5q12 0 26 5v-66q-23 -14 -61 -14q-72 0 -72 80q-68 -80 -182 -80 q-76 0 -123.5 36t-47.5 109zM126 139q0 -39 28.5 -57.5t71.5 -18.5q76 0 117 37.5t41 79.5v87q-15 -11 -37.5 -17t-63 -11t-53.5 -7q-49 -9 -76.5 -29.5t-27.5 -63.5zM135 731h109l86 -143h-64z" />
<glyph unicode="&#xe1;" horiz-adv-x="537" d="M36 133q0 42 14 71.5t42 46t53.5 25t65.5 16.5q20 4 53 8.5t50 8t36 10t27 19t8 30.5q0 86 -115 86q-124 0 -129 -98h-85q4 90 64 131.5t155 41.5q194 0 194 -142v-266q0 -35 4 -46.5t23 -11.5q12 0 26 5v-66q-23 -14 -61 -14q-72 0 -72 80q-68 -80 -182 -80 q-76 0 -123.5 36t-47.5 109zM126 139q0 -39 28.5 -57.5t71.5 -18.5q76 0 117 37.5t41 79.5v87q-15 -11 -37.5 -17t-63 -11t-53.5 -7q-49 -9 -76.5 -29.5t-27.5 -63.5zM208 588l86 143h109l-131 -143h-64z" />
<glyph unicode="&#xe2;" horiz-adv-x="537" d="M36 133q0 42 14 71.5t42 46t53.5 25t65.5 16.5q20 4 53 8.5t50 8t36 10t27 19t8 30.5q0 86 -115 86q-124 0 -129 -98h-85q4 90 64 131.5t155 41.5q194 0 194 -142v-266q0 -35 4 -46.5t23 -11.5q12 0 26 5v-66q-23 -14 -61 -14q-72 0 -72 80q-68 -80 -182 -80 q-76 0 -123.5 36t-47.5 109zM119 588l103 143h93l104 -143h-84l-69 96l-70 -96h-77zM126 139q0 -39 28.5 -57.5t71.5 -18.5q76 0 117 37.5t41 79.5v87q-15 -11 -37.5 -17t-63 -11t-53.5 -7q-49 -9 -76.5 -29.5t-27.5 -63.5z" />
<glyph unicode="&#xe3;" horiz-adv-x="537" d="M36 133q0 42 14 71.5t42 46t53.5 25t65.5 16.5q20 4 53 8.5t50 8t36 10t27 19t8 30.5q0 86 -115 86q-124 0 -129 -98h-85q4 90 64 131.5t155 41.5q194 0 194 -142v-266q0 -35 4 -46.5t23 -11.5q12 0 26 5v-66q-23 -14 -61 -14q-72 0 -72 80q-68 -80 -182 -80 q-76 0 -123.5 36t-47.5 109zM100 597q14 51 38 80.5t67 29.5q28 0 74 -20t66 -20q33 0 46 44h52q-6 -44 -31 -80q-28 -31 -79 -31q-18 0 -66 20q-51 19 -67 19q-18 0 -33.5 -12t-14.5 -30h-52zM126 139q0 -39 28.5 -57.5t71.5 -18.5q76 0 117 37.5t41 79.5v87 q-15 -11 -37.5 -17t-63 -11t-53.5 -7q-49 -9 -76.5 -29.5t-27.5 -63.5z" />
<glyph unicode="&#xe4;" horiz-adv-x="537" d="M36 133q0 42 14 71.5t42 46t53.5 25t65.5 16.5q20 4 53 8.5t50 8t36 10t27 19t8 30.5q0 86 -115 86q-124 0 -129 -98h-85q4 90 64 131.5t155 41.5q194 0 194 -142v-266q0 -35 4 -46.5t23 -11.5q12 0 26 5v-66q-23 -14 -61 -14q-72 0 -72 80q-68 -80 -182 -80 q-76 0 -123.5 36t-47.5 109zM126 139q0 -39 28.5 -57.5t71.5 -18.5q76 0 117 37.5t41 79.5v87q-15 -11 -37.5 -17t-63 -11t-53.5 -7q-49 -9 -76.5 -29.5t-27.5 -63.5zM130 592v104h90v-104h-90zM318 592v104h90v-104h-90z" />
<glyph unicode="&#xe5;" horiz-adv-x="537" d="M36 133q0 42 14 71.5t42 46t53.5 25t65.5 16.5q20 4 53 8.5t50 8t36 10t27 19t8 30.5q0 86 -115 86q-124 0 -129 -98h-85q4 90 64 131.5t155 41.5q194 0 194 -142v-266q0 -35 4 -46.5t23 -11.5q12 0 26 5v-66q-23 -14 -61 -14q-72 0 -72 80q-68 -80 -182 -80 q-76 0 -123.5 36t-47.5 109zM126 139q0 -39 28.5 -57.5t71.5 -18.5q76 0 117 37.5t41 79.5v87q-15 -11 -37.5 -17t-63 -11t-53.5 -7q-49 -9 -76.5 -29.5t-27.5 -63.5zM156 662q0 46 33 79.5t80 33.5t80 -33.5t33 -79.5t-33 -79.5t-80 -33.5t-80 33.5t-33 79.5zM201 662 q0 -28 19.5 -48t48.5 -20t48.5 20t19.5 48t-19.5 48t-48.5 20t-48.5 -20t-19.5 -48z" />
<glyph unicode="&#xe6;" horiz-adv-x="870" d="M36 133q0 42 14 71.5t42 46t53.5 25t65.5 16.5q20 4 48.5 9t41.5 7t31 6.5t25.5 9t16 11.5t11 16.5t2.5 22.5q0 47 -32 63.5t-85 16.5q-124 0 -129 -98h-85q4 90 64 131.5t155 41.5q137 0 173 -75q49 75 165 75q233 0 233 -296h-379q0 -73 40 -121.5t115 -48.5 q49 0 84 25.5t47 74.5h87q-19 -83 -78 -129t-146 -46q-142 0 -187 101q-55 -101 -218 -101q-79 0 -127 36t-48 109zM126 139q0 -39 28.5 -57.5t71.5 -18.5q77 0 119 37.5t42 79.5v87q-15 -10 -39.5 -16t-64.5 -11.5t-53 -7.5q-49 -9 -76.5 -29.5t-27.5 -63.5zM467 308h289 q-2 63 -40 104.5t-103 41.5q-67 0 -106.5 -41t-39.5 -105z" />
<glyph unicode="&#xe7;" horiz-adv-x="537" d="M36 252q0 122 63 199.5t181 77.5q93 0 153.5 -45t69.5 -133h-88q-10 49 -43 76t-85 27q-44 0 -76.5 -16.5t-50.5 -45.5t-26 -63.5t-8 -76.5q0 -79 37.5 -134t113.5 -55q61 0 97.5 33.5t44.5 92.5h87q-14 -92 -68.5 -144t-144.5 -56l-33 -42l2 -2q10 7 33 7q34 0 59 -19 t25 -54q0 -46 -37.5 -67.5t-86.5 -21.5q-40 0 -92 19l18 44q35 -13 61 -13q24 0 43 7.5t19 23.5q0 13 -13.5 22t-33.5 9q-17 0 -41 -8l-17 28l53 68q-103 8 -159.5 79t-56.5 183z" />
<glyph unicode="&#xe8;" horiz-adv-x="537" d="M36 260q0 116 68.5 192.5t174.5 76.5q53 0 95 -19t68 -49t43 -70t23.5 -79.5t4.5 -78.5h-387q-2 -72 39 -121t122 -49q111 0 134 101h84q-17 -85 -75 -130.5t-146 -45.5q-119 0 -181.5 74t-66.5 198zM126 308h297q-3 62 -45 104t-104 42q-64 0 -103.5 -42t-44.5 -104z M135 731h109l86 -143h-64z" />
<glyph unicode="&#xe9;" horiz-adv-x="537" d="M36 260q0 116 68.5 192.5t174.5 76.5q53 0 95 -19t68 -49t43 -70t23.5 -79.5t4.5 -78.5h-387q-2 -72 39 -121t122 -49q111 0 134 101h84q-17 -85 -75 -130.5t-146 -45.5q-119 0 -181.5 74t-66.5 198zM126 308h297q-3 62 -45 104t-104 42q-64 0 -103.5 -42t-44.5 -104z M208 588l86 143h109l-131 -143h-64z" />
<glyph unicode="&#xea;" horiz-adv-x="537" d="M36 260q0 116 68.5 192.5t174.5 76.5q53 0 95 -19t68 -49t43 -70t23.5 -79.5t4.5 -78.5h-387q-2 -72 39 -121t122 -49q111 0 134 101h84q-17 -85 -75 -130.5t-146 -45.5q-119 0 -181.5 74t-66.5 198zM119 588l103 143h93l104 -143h-84l-69 96l-70 -96h-77zM126 308h297 q-3 62 -45 104t-104 42q-64 0 -103.5 -42t-44.5 -104z" />
<glyph unicode="&#xeb;" horiz-adv-x="537" d="M36 260q0 116 68.5 192.5t174.5 76.5q53 0 95 -19t68 -49t43 -70t23.5 -79.5t4.5 -78.5h-387q-2 -72 39 -121t122 -49q111 0 134 101h84q-17 -85 -75 -130.5t-146 -45.5q-119 0 -181.5 74t-66.5 198zM126 308h297q-3 62 -45 104t-104 42q-64 0 -103.5 -42t-44.5 -104z M130 592v104h90v-104h-90zM318 592v104h90v-104h-90z" />
<glyph unicode="&#xec;" horiz-adv-x="222" d="M-23 731h109l86 -143h-64zM69 0v517h85v-517h-85z" />
<glyph unicode="&#xed;" horiz-adv-x="222" d="M50 588l86 143h109l-131 -143h-64zM69 0v517h85v-517h-85z" />
<glyph unicode="&#xee;" horiz-adv-x="222" d="M-39 588l103 143h93l104 -143h-84l-69 96l-70 -96h-77zM69 0v517h85v-517h-85z" />
<glyph unicode="&#xef;" horiz-adv-x="222" d="M-28 592v104h90v-104h-90zM69 0v517h85v-517h-85zM160 592v104h90v-104h-90z" />
<glyph unicode="&#xf0;" horiz-adv-x="574" d="M36 258q0 103 63.5 175.5t172.5 72.5q90 0 139 -56h2q-21 47 -57 89t-65 62l-115 -54l-38 40l109 51q-27 23 -70 48l70 45q72 -52 77 -56l120 56l35 -37l-115 -53q174 -143 174 -383q0 -118 -66 -194t-185 -76t-185 76t-66 194zM126 258q0 -91 46 -143t115 -52t115 52 t46 143q0 74 -41.5 123.5t-124.5 49.5q-75 0 -115.5 -47t-40.5 -126z" />
<glyph unicode="&#xf1;" d="M64 0v517h80v-82h2q53 94 168 94q96 0 137 -49.5t41 -139.5v-340h-85v350q0 48 -28.5 76t-76.5 28q-75 0 -114 -44.5t-39 -117.5v-292h-85zM109 597q14 51 38 80.5t67 29.5q28 0 74 -20t66 -20q33 0 46 44h52q-6 -44 -31 -80q-28 -31 -79 -31q-18 0 -66 20q-51 19 -67 19 q-18 0 -33.5 -12t-14.5 -30h-52z" />
<glyph unicode="&#xf2;" horiz-adv-x="574" d="M36 258q0 119 66 195t185 76t185 -76t66 -195q0 -118 -66 -194t-185 -76t-185 76t-66 194zM126 258q0 -91 46 -143t115 -52t115 52t46 143t-46 143.5t-115 52.5t-115 -52.5t-46 -143.5zM153 731h109l86 -143h-64z" />
<glyph unicode="&#xf3;" horiz-adv-x="574" d="M36 258q0 119 66 195t185 76t185 -76t66 -195q0 -118 -66 -194t-185 -76t-185 76t-66 194zM126 258q0 -91 46 -143t115 -52t115 52t46 143t-46 143.5t-115 52.5t-115 -52.5t-46 -143.5zM226 588l86 143h109l-131 -143h-64z" />
<glyph unicode="&#xf4;" horiz-adv-x="574" d="M36 258q0 119 66 195t185 76t185 -76t66 -195q0 -118 -66 -194t-185 -76t-185 76t-66 194zM126 258q0 -91 46 -143t115 -52t115 52t46 143t-46 143.5t-115 52.5t-115 -52.5t-46 -143.5zM137 588l103 143h93l104 -143h-84l-69 96l-70 -96h-77z" />
<glyph unicode="&#xf5;" horiz-adv-x="574" d="M36 258q0 119 66 195t185 76t185 -76t66 -195q0 -118 -66 -194t-185 -76t-185 76t-66 194zM118 597q14 51 38 80.5t67 29.5q28 0 74 -20t66 -20q33 0 46 44h52q-6 -44 -31 -80q-28 -31 -79 -31q-18 0 -66 20q-51 19 -67 19q-18 0 -33.5 -12t-14.5 -30h-52zM126 258 q0 -91 46 -143t115 -52t115 52t46 143t-46 143.5t-115 52.5t-115 -52.5t-46 -143.5z" />
<glyph unicode="&#xf6;" horiz-adv-x="574" d="M36 258q0 119 66 195t185 76t185 -76t66 -195q0 -118 -66 -194t-185 -76t-185 76t-66 194zM126 258q0 -91 46 -143t115 -52t115 52t46 143t-46 143.5t-115 52.5t-115 -52.5t-46 -143.5zM148 592v104h90v-104h-90zM336 592v104h90v-104h-90z" />
<glyph unicode="&#xf7;" horiz-adv-x="600" d="M48 219v68h504v-68h-504zM236 47q0 26 19 45t45 19t45 -19.5t19 -44.5q0 -24 -19 -44t-44 -20q-26 0 -45.5 19t-19.5 45zM236 459q0 26 19 45t45 19t45 -19.5t19 -44.5q0 -24 -19 -44t-44 -20q-26 0 -45.5 19t-19.5 45z" />
<glyph unicode="&#xf8;" horiz-adv-x="574" d="M34 2l62 69q-60 73 -60 187q0 119 66 195t185 76q103 0 168 -59l58 65l27 -26l-60 -66q58 -72 58 -185q0 -118 -66 -194t-185 -76q-100 0 -165 57l-60 -67zM126 258q0 -69 30 -121l242 270q-44 47 -111 47q-69 0 -115 -52.5t-46 -143.5zM178 108q45 -45 109 -45 q69 0 115 52t46 143q0 70 -28 119z" />
<glyph unicode="&#xf9;" d="M64 177v340h85v-350q0 -47 28.5 -75.5t76.5 -28.5q75 0 114 44.5t39 117.5v292h85v-517h-80v82h-2q-53 -94 -168 -94q-96 0 -137 49.5t-41 139.5zM144 731h109l86 -143h-64z" />
<glyph unicode="&#xfa;" d="M64 177v340h85v-350q0 -47 28.5 -75.5t76.5 -28.5q75 0 114 44.5t39 117.5v292h85v-517h-80v82h-2q-53 -94 -168 -94q-96 0 -137 49.5t-41 139.5zM217 588l86 143h109l-131 -143h-64z" />
<glyph unicode="&#xfb;" d="M64 177v340h85v-350q0 -47 28.5 -75.5t76.5 -28.5q75 0 114 44.5t39 117.5v292h85v-517h-80v82h-2q-53 -94 -168 -94q-96 0 -137 49.5t-41 139.5zM128 588l103 143h93l104 -143h-84l-69 96l-70 -96h-77z" />
<glyph unicode="&#xfc;" d="M64 177v340h85v-350q0 -47 28.5 -75.5t76.5 -28.5q75 0 114 44.5t39 117.5v292h85v-517h-80v82h-2q-53 -94 -168 -94q-96 0 -137 49.5t-41 139.5zM139 592v104h90v-104h-90zM327 592v104h90v-104h-90z" />
<glyph unicode="&#xfd;" horiz-adv-x="500" d="M8 517h96l151 -423h2l145 423h90l-225 -586q-30 -77 -62 -107.5t-88 -30.5q-35 0 -59 9v78q38 -12 50 -12q45 0 70 47l35 88zM189 588l86 143h109l-131 -143h-64z" />
<glyph unicode="&#xfe;" horiz-adv-x="593" d="M67 -198v912h85v-267h2q20 41 64.5 61.5t100.5 20.5q114 0 176 -78t62 -194t-61.5 -192.5t-174.5 -76.5q-47 0 -94 19.5t-73 61.5h-2v-267h-85zM149 259q0 -84 40.5 -140t122.5 -56q81 0 118 57.5t37 142.5q0 79 -41 135t-119 56q-80 0 -119 -57t-39 -138z" />
<glyph unicode="&#xff;" horiz-adv-x="500" d="M8 517h96l151 -423h2l145 423h90l-225 -586q-30 -77 -62 -107.5t-88 -30.5q-35 0 -59 9v78q38 -12 50 -12q45 0 70 47l35 88zM111 592v104h90v-104h-90zM299 592v104h90v-104h-90z" />
<glyph unicode="&#x152;" horiz-adv-x="1074" d="M38 355q0 165 90 270.5t245 105.5q54 0 105 -20t71 -56h2v59h477v-80h-382v-227h350v-80h-350v-247h388v-80h-483v69h-2q-26 -40 -76.5 -63t-107.5 -23q-154 0 -240.5 105t-86.5 267zM133 351q0 -125 63 -206.5t176 -81.5q76 0 127.5 40t51.5 101v301q0 46 -15 69 q-22 33 -65 55t-97 22q-116 0 -178.5 -86t-62.5 -214z" />
<glyph unicode="&#x153;" horiz-adv-x="891" d="M36 259q0 119 60 194.5t175 75.5q136 0 179 -91q26 44 76 67.5t107 23.5q123 0 180.5 -83t50.5 -213h-375q-2 -71 37.5 -120.5t111.5 -49.5q51 0 88 26.5t52 74.5h81q-51 -176 -221 -176q-144 0 -188 102q-44 -102 -179 -102q-116 0 -175.5 76.5t-59.5 194.5zM126 248 q0 -75 36 -130t109 -55q54 0 87.5 31t45 72.5t11.5 93.5q0 194 -144 194q-75 0 -110 -59.5t-35 -146.5zM489 308h285q0 66 -37.5 106t-103.5 40t-105.5 -40.5t-38.5 -105.5z" />
<glyph unicode="&#x178;" horiz-adv-x="648" d="M2 714h113l214 -340l209 340h108l-273 -422v-292h-95v292zM185 769v104h90v-104h-90zM373 769v104h90v-104h-90z" />
<glyph unicode="&#x2c6;" horiz-adv-x="222" d="M-39 588l103 143h93l104 -143h-84l-69 96l-70 -96h-77z" />
<glyph unicode="&#x2dc;" horiz-adv-x="222" d="M-58 597q14 51 38 80.5t67 29.5q28 0 74 -20t66 -20q33 0 46 44h52q-6 -44 -31 -80q-28 -31 -79 -31q-18 0 -66 20q-51 19 -67 19q-18 0 -33.5 -12t-14.5 -30h-52z" />
<glyph unicode="&#x2000;" horiz-adv-x="476" />
<glyph unicode="&#x2001;" horiz-adv-x="952" />
<glyph unicode="&#x2002;" horiz-adv-x="476" />
<glyph unicode="&#x2003;" horiz-adv-x="952" />
<glyph unicode="&#x2004;" horiz-adv-x="317" />
<glyph unicode="&#x2005;" horiz-adv-x="238" />
<glyph unicode="&#x2006;" horiz-adv-x="158" />
<glyph unicode="&#x2007;" horiz-adv-x="158" />
<glyph unicode="&#x2008;" horiz-adv-x="119" />
<glyph unicode="&#x2009;" horiz-adv-x="190" />
<glyph unicode="&#x200a;" horiz-adv-x="52" />
<glyph unicode="&#x2010;" horiz-adv-x="389" d="M50 238v80h289v-80h-289z" />
<glyph unicode="&#x2011;" horiz-adv-x="389" d="M50 238v80h289v-80h-289z" />
<glyph unicode="&#x2012;" horiz-adv-x="389" d="M50 238v80h289v-80h-289z" />
<glyph unicode="&#x2013;" horiz-adv-x="500" d="M0 238v80h500v-80h-500z" />
<glyph unicode="&#x2014;" horiz-adv-x="1000" d="M130 238v80h740v-80h-740z" />
<glyph unicode="&#x2018;" horiz-adv-x="278" d="M84 456v111q0 64 27.5 105.5t82.5 41.5v-50q-31 0 -44.5 -28.5t-13.5 -68.5h59v-111h-111z" />
<glyph unicode="&#x2019;" horiz-adv-x="278" d="M83 603v111h111v-111q0 -64 -27.5 -105.5t-82.5 -41.5v50q31 0 44.5 28.5t13.5 68.5h-59z" />
<glyph unicode="&#x201a;" horiz-adv-x="278" d="M83 0v111h111v-111q0 -64 -27.5 -105.5t-82.5 -41.5v50q31 0 44.5 28.5t13.5 68.5h-59z" />
<glyph unicode="&#x201c;" horiz-adv-x="426" d="M66 456v111q0 64 27.5 105.5t82.5 41.5v-50q-31 0 -44.5 -28.5t-13.5 -68.5h59v-111h-111zM249 456v111q0 64 27.5 105.5t82.5 41.5v-50q-31 0 -44.5 -28.5t-13.5 -68.5h59v-111h-111z" />
<glyph unicode="&#x201d;" horiz-adv-x="426" d="M66 603v111h111v-111q0 -64 -27.5 -105.5t-82.5 -41.5v50q31 0 44.5 28.5t13.5 68.5h-59zM249 603v111h111v-111q0 -64 -27.5 -105.5t-82.5 -41.5v50q31 0 44.5 28.5t13.5 68.5h-59z" />
<glyph unicode="&#x201e;" horiz-adv-x="426" d="M66 0v111h111v-111q0 -64 -27.5 -105.5t-82.5 -41.5v50q31 0 44.5 28.5t13.5 68.5h-59zM249 0v111h111v-111q0 -64 -27.5 -105.5t-82.5 -41.5v50q31 0 44.5 28.5t13.5 68.5h-59z" />
<glyph unicode="&#x2022;" horiz-adv-x="500" d="M72 357q0 74 52 126t126 52t126.5 -52t52.5 -126t-52.5 -126.5t-126.5 -52.5t-126 52.5t-52 126.5z" />
<glyph unicode="&#x2026;" horiz-adv-x="1000" d="M111 0v111h111v-111h-111zM444 0v111h111v-111h-111zM777 0v111h111v-111h-111z" />
<glyph unicode="&#x202f;" horiz-adv-x="190" />
<glyph unicode="&#x2039;" horiz-adv-x="259" d="M50 234v88l152 120v-86l-100 -78l100 -78v-86z" />
<glyph unicode="&#x203a;" horiz-adv-x="259" d="M57 114v86l100 78l-100 78v86l152 -120v-88z" />
<glyph unicode="&#x205f;" horiz-adv-x="238" />
<glyph unicode="&#x20ac;" d="M13 276l27 61h46q-1 7 -1 20q0 23 1 32h-73l26 61h54q24 123 91 194q75 81 193 81q91 0 181 -63l-46 -83q-71 69 -143 69q-75 0 -124 -64q-39 -51 -56 -134h283l-27 -61h-263q-1 -11 -1 -31q0 -15 1 -21h249l-26 -61h-218q33 -215 190 -215q48 0 85 19q27 14 69 53v-105 q-68 -44 -154 -44q-245 0 -287 292h-77z" />
<glyph unicode="&#x2122;" horiz-adv-x="990" d="M64 659v55h326v-55h-129v-357h-68v357h-129zM474 302v412h105l123 -313l121 313h104v-412h-68v344h-2l-135 -344h-43l-135 344h-2v-344h-68z" />
</font>
</defs>
</svg>
